<svg width="128" height="36" viewBox="0 0 128 36" fill="none" xmlns="http://www.w3.org/2000/svg">
<rect width="128" height="36" rx="5" fill="white"/>
<path d="M33.1826 13.0469V23H31.8838V13.0469H33.1826ZM36.3818 13.0469V14.127H28.6914V13.0469H36.3818ZM38.4121 16.7656V23H37.1475V15.6035H38.3779L38.4121 16.7656ZM40.7227 15.5625L40.7158 16.7383C40.611 16.7155 40.5107 16.7018 40.415 16.6973C40.3239 16.6882 40.2191 16.6836 40.1006 16.6836C39.8089 16.6836 39.5514 16.7292 39.3281 16.8203C39.1048 16.9115 38.9157 17.0391 38.7607 17.2031C38.6058 17.3672 38.4827 17.5632 38.3916 17.791C38.305 18.0143 38.248 18.2604 38.2207 18.5293L37.8652 18.7344C37.8652 18.2878 37.9085 17.8685 37.9951 17.4766C38.0863 17.0846 38.2253 16.7383 38.4121 16.4375C38.599 16.1322 38.8359 15.8952 39.123 15.7266C39.4147 15.5534 39.7611 15.4668 40.1621 15.4668C40.2533 15.4668 40.3581 15.4782 40.4766 15.501C40.5951 15.5192 40.6771 15.5397 40.7227 15.5625ZM44.8242 23.1367C44.3092 23.1367 43.8421 23.0501 43.4229 22.877C43.0081 22.6992 42.6504 22.4508 42.3496 22.1318C42.0534 21.8128 41.8255 21.4346 41.666 20.9971C41.5065 20.5596 41.4268 20.0811 41.4268 19.5615V19.2744C41.4268 18.6729 41.5156 18.1374 41.6934 17.668C41.8711 17.194 42.1126 16.793 42.418 16.4648C42.7233 16.1367 43.0697 15.8883 43.457 15.7197C43.8444 15.5511 44.2454 15.4668 44.6602 15.4668C45.1888 15.4668 45.6445 15.5579 46.0273 15.7402C46.4147 15.9225 46.7314 16.1777 46.9775 16.5059C47.2236 16.8294 47.4059 17.2122 47.5244 17.6543C47.6429 18.0918 47.7021 18.5703 47.7021 19.0898V19.6572H42.1787V18.625H46.4375V18.5293C46.4193 18.2012 46.3509 17.8822 46.2324 17.5723C46.1185 17.2624 45.9362 17.0072 45.6855 16.8066C45.4349 16.6061 45.0931 16.5059 44.6602 16.5059C44.373 16.5059 44.1087 16.5674 43.8672 16.6904C43.6257 16.8089 43.4183 16.9867 43.2451 17.2236C43.0719 17.4606 42.9375 17.75 42.8418 18.0918C42.7461 18.4336 42.6982 18.8278 42.6982 19.2744V19.5615C42.6982 19.9124 42.7461 20.2428 42.8418 20.5527C42.9421 20.8581 43.0856 21.127 43.2725 21.3594C43.4639 21.5918 43.694 21.7741 43.9629 21.9062C44.2363 22.0384 44.5462 22.1045 44.8926 22.1045C45.3392 22.1045 45.7174 22.0133 46.0273 21.8311C46.3372 21.6488 46.6084 21.4049 46.8408 21.0996L47.6064 21.708C47.4469 21.9495 47.2441 22.1797 46.998 22.3984C46.752 22.6172 46.4489 22.7949 46.0889 22.9316C45.7334 23.0684 45.3118 23.1367 44.8242 23.1367ZM45.0361 12.5L46.7314 14.3662V14.4346H45.6787L44.6533 13.2793L43.6348 14.4346H42.5957V14.3594L44.2705 12.5H45.0361ZM50.4434 17.1826V23H49.1787V15.6035H50.375L50.4434 17.1826ZM50.1426 19.0215L49.6162 19.001C49.6208 18.4951 49.696 18.028 49.8418 17.5996C49.9876 17.1667 50.1927 16.7907 50.457 16.4717C50.7214 16.1527 51.0358 15.9066 51.4004 15.7334C51.7695 15.5557 52.1774 15.4668 52.624 15.4668C52.9886 15.4668 53.3167 15.5169 53.6084 15.6172C53.9001 15.7129 54.1484 15.8678 54.3535 16.082C54.5632 16.2962 54.7227 16.5742 54.832 16.916C54.9414 17.2533 54.9961 17.6657 54.9961 18.1533V23H53.7246V18.1396C53.7246 17.7523 53.6676 17.4424 53.5537 17.21C53.4398 16.973 53.2734 16.8021 53.0547 16.6973C52.8359 16.5879 52.5671 16.5332 52.248 16.5332C51.9336 16.5332 51.6465 16.5993 51.3867 16.7314C51.1315 16.8636 50.9105 17.0459 50.7236 17.2783C50.5413 17.5107 50.3978 17.7773 50.293 18.0781C50.1927 18.3743 50.1426 18.6888 50.1426 19.0215ZM64.3613 14.749L61.6543 23H59.4736L63.1719 13.0469H64.5596L64.3613 14.749ZM66.6104 23L63.8965 14.749L63.6777 13.0469H65.0791L68.7979 23H66.6104ZM66.4873 19.2949V20.9014H61.2305V19.2949H66.4873ZM77.8213 13.0469V23H75.7705L71.7715 16.3281V23H69.7207V13.0469H71.7715L75.7773 19.7256V13.0469H77.8213ZM82.6611 23H80.4941L80.5078 21.4004H82.6611C83.1989 21.4004 83.6523 21.2796 84.0215 21.0381C84.3906 20.792 84.6686 20.4342 84.8555 19.9648C85.0469 19.4954 85.1426 18.9281 85.1426 18.2627V17.7773C85.1426 17.2669 85.0879 16.818 84.9785 16.4307C84.8737 16.0433 84.7165 15.7174 84.5068 15.4531C84.2972 15.1888 84.0397 14.9906 83.7344 14.8584C83.429 14.7217 83.0781 14.6533 82.6816 14.6533H80.4531V13.0469H82.6816C83.347 13.0469 83.9554 13.1608 84.5068 13.3887C85.0628 13.612 85.5436 13.9333 85.9492 14.3525C86.3548 14.7718 86.667 15.2731 86.8857 15.8564C87.109 16.4352 87.2207 17.0801 87.2207 17.791V18.2627C87.2207 18.9691 87.109 19.6139 86.8857 20.1973C86.667 20.7806 86.3548 21.2819 85.9492 21.7012C85.5482 22.1159 85.0674 22.4372 84.5068 22.665C83.9508 22.8883 83.3356 23 82.6611 23ZM81.6562 13.0469V23H79.6055V13.0469H81.6562ZM88.7109 13.0469H92.4229C93.1839 13.0469 93.8379 13.1608 94.3848 13.3887C94.9362 13.6165 95.36 13.9538 95.6562 14.4004C95.9525 14.847 96.1006 15.3962 96.1006 16.0479C96.1006 16.5811 96.0094 17.0391 95.8271 17.4219C95.6494 17.8001 95.3965 18.1169 95.0684 18.3721C94.7448 18.6227 94.3643 18.8232 93.9268 18.9736L93.2773 19.3154H90.0508L90.0371 17.7158H92.4365C92.7965 17.7158 93.0951 17.652 93.332 17.5244C93.569 17.3968 93.7467 17.2191 93.8652 16.9912C93.9883 16.7633 94.0498 16.499 94.0498 16.1982C94.0498 15.8792 93.9906 15.6035 93.8721 15.3711C93.7536 15.1387 93.5736 14.9609 93.332 14.8379C93.0905 14.7148 92.7874 14.6533 92.4229 14.6533H90.7617V23H88.7109V13.0469ZM94.2754 23L92.0059 18.5635L94.1729 18.5498L96.4697 22.9043V23H94.2754ZM105.855 17.791V18.2627C105.855 19.0192 105.753 19.6982 105.548 20.2998C105.343 20.9014 105.053 21.4141 104.68 21.8379C104.306 22.2572 103.859 22.5785 103.34 22.8018C102.825 23.0251 102.253 23.1367 101.624 23.1367C101 23.1367 100.428 23.0251 99.9082 22.8018C99.3932 22.5785 98.9466 22.2572 98.5684 21.8379C98.1901 21.4141 97.8962 20.9014 97.6865 20.2998C97.4814 19.6982 97.3789 19.0192 97.3789 18.2627V17.791C97.3789 17.0299 97.4814 16.3509 97.6865 15.7539C97.8916 15.1523 98.181 14.6396 98.5547 14.2158C98.9329 13.792 99.3796 13.4684 99.8945 13.2451C100.414 13.0218 100.986 12.9102 101.61 12.9102C102.239 12.9102 102.811 13.0218 103.326 13.2451C103.846 13.4684 104.292 13.792 104.666 14.2158C105.044 14.6396 105.336 15.1523 105.541 15.7539C105.751 16.3509 105.855 17.0299 105.855 17.791ZM103.784 18.2627V17.7773C103.784 17.2487 103.736 16.7839 103.641 16.3828C103.545 15.9818 103.404 15.6445 103.217 15.3711C103.03 15.0977 102.802 14.8926 102.533 14.7559C102.264 14.6146 101.957 14.5439 101.61 14.5439C101.264 14.5439 100.956 14.6146 100.688 14.7559C100.423 14.8926 100.198 15.0977 100.011 15.3711C99.8285 15.6445 99.6895 15.9818 99.5938 16.3828C99.498 16.7839 99.4502 17.2487 99.4502 17.7773V18.2627C99.4502 18.7868 99.498 19.2516 99.5938 19.6572C99.6895 20.0583 99.8307 20.3978 100.018 20.6758C100.204 20.9492 100.432 21.1566 100.701 21.2979C100.97 21.4391 101.278 21.5098 101.624 21.5098C101.97 21.5098 102.278 21.4391 102.547 21.2979C102.816 21.1566 103.041 20.9492 103.224 20.6758C103.406 20.3978 103.545 20.0583 103.641 19.6572C103.736 19.2516 103.784 18.7868 103.784 18.2627ZM109.513 13.0469V23H107.469V13.0469H109.513ZM114.489 23H112.322L112.336 21.4004H114.489C115.027 21.4004 115.48 21.2796 115.85 21.0381C116.219 20.792 116.497 20.4342 116.684 19.9648C116.875 19.4954 116.971 18.9281 116.971 18.2627V17.7773C116.971 17.2669 116.916 16.818 116.807 16.4307C116.702 16.0433 116.545 15.7174 116.335 15.4531C116.125 15.1888 115.868 14.9906 115.562 14.8584C115.257 14.7217 114.906 14.6533 114.51 14.6533H112.281V13.0469H114.51C115.175 13.0469 115.784 13.1608 116.335 13.3887C116.891 13.612 117.372 13.9333 117.777 14.3525C118.183 14.7718 118.495 15.2731 118.714 15.8564C118.937 16.4352 119.049 17.0801 119.049 17.791V18.2627C119.049 18.9691 118.937 19.6139 118.714 20.1973C118.495 20.7806 118.183 21.2819 117.777 21.7012C117.376 22.1159 116.896 22.4372 116.335 22.665C115.779 22.8883 115.164 23 114.489 23ZM113.484 13.0469V23H111.434V13.0469H113.484Z" fill="#333333"/>
<path d="M18.4386 27.9999C19.1073 27.9999 19.6905 27.4168 19.6905 26.7481V23.8244H20.5264C21.028 23.8244 21.3623 23.49 21.3623 22.9885V14.6381H11.3395V22.9886C11.3395 23.4901 11.6739 23.8245 12.1754 23.8245H13.0113V26.7481C13.0113 27.4168 13.5944 28 14.2632 28C14.9319 28 15.5149 27.4168 15.5149 26.7481V23.8245H17.1868V26.7481C17.1867 27.4168 17.7699 27.9999 18.4386 27.9999ZM23.4501 22.9886C24.1188 22.9886 24.7018 22.4055 24.7018 21.7367V15.8895C24.7018 15.2243 24.1188 14.6381 23.4501 14.6381C22.7813 14.6381 22.1982 15.2243 22.1982 15.8895V21.7367C22.1982 22.4054 22.7812 22.9886 23.4501 22.9886ZM9.25174 22.9886C9.92052 22.9886 10.5036 22.4055 10.5036 21.7367V15.8895C10.5036 15.2243 9.92058 14.6381 9.25174 14.6381C8.58302 14.6381 8 15.2243 8 15.8895V21.7367C8 22.4054 8.58302 22.9886 9.25174 22.9886ZM20.3591 8.12613C20.192 7.95796 19.9432 7.95796 19.7761 8.12613L18.655 9.24353L18.6032 9.29518C17.9385 8.96229 17.1931 8.79605 16.3631 8.79445L16.351 8.79431H16.3508L16.3386 8.79445C15.5086 8.79605 14.7633 8.96229 14.0986 9.29518L14.0467 9.24353L12.9257 8.12613C12.7584 7.95796 12.5097 7.95796 12.3426 8.12613C12.1754 8.29338 12.1754 8.54158 12.3426 8.70869L13.4271 9.79338C13.0777 10.0267 12.7608 10.3122 12.4853 10.6387C11.8255 11.4207 11.4048 12.4384 11.3469 13.541C11.3464 13.5525 11.3452 13.5639 11.3447 13.5753C11.3412 13.6507 11.3395 13.7262 11.3395 13.8017H21.3623C21.3623 13.7259 21.3605 13.6504 21.357 13.5753C21.3565 13.5639 21.3554 13.5525 21.3547 13.541C21.297 12.4384 20.8761 11.4206 20.2164 10.6388C19.9409 10.3123 19.6239 10.0268 19.2745 9.79345L20.3591 8.70876C20.5264 8.54158 20.5264 8.29338 20.3591 8.12613ZM14.2616 12.3422C14.0955 12.3422 13.9363 12.2762 13.8188 12.1588C13.7014 12.0413 13.6354 11.882 13.6354 11.716C13.6354 11.5499 13.7014 11.3906 13.8188 11.2732C13.9363 11.1557 14.0955 11.0898 14.2616 11.0898C14.4277 11.0898 14.587 11.1557 14.7044 11.2732C14.8218 11.3906 14.8878 11.5499 14.8878 11.716C14.8878 11.882 14.8218 12.0413 14.7044 12.1588C14.587 12.2762 14.4277 12.3422 14.2616 12.3422ZM18.4401 12.3422C18.2741 12.3422 18.1148 12.2762 17.9973 12.1588C17.8799 12.0413 17.8139 11.882 17.8139 11.716C17.8139 11.5499 17.8799 11.3906 17.9973 11.2732C18.1148 11.1557 18.2741 11.0898 18.4401 11.0898C18.6062 11.0898 18.7655 11.1557 18.8829 11.2732C19.0004 11.3906 19.0663 11.5499 19.0663 11.716C19.0663 11.882 19.0004 12.0413 18.8829 12.1588C18.7655 12.2762 18.6062 12.3422 18.4401 12.3422Z" fill="#993333"/>
</svg>
