<svg width="18" height="18" viewBox="0 0 18 18" fill="none" xmlns="http://www.w3.org/2000/svg">
<path d="M13.9095 0H4.09102C3.00641 0.00129919 1.9666 0.432733 1.19967 1.19967C0.432733 1.9666 0.00129919 3.00641 0 4.09102V10.6367C0.0011901 11.5794 0.327355 12.4929 0.923522 13.2232C1.51969 13.9535 2.3494 14.4559 3.27282 14.6459V17.1823C3.27279 17.3304 3.31299 17.4758 3.3891 17.6028C3.46522 17.7299 3.57441 17.834 3.70502 17.9038C3.83563 17.9737 3.98276 18.0068 4.13072 17.9996C4.27867 17.9925 4.4219 17.9452 4.54512 17.863L9.2457 14.7277H13.9095C14.9941 14.7264 16.0339 14.2949 16.8008 13.528C17.5678 12.7611 17.9992 11.7213 18.0005 10.6367V4.09102C17.9992 3.00641 17.5678 1.9666 16.8008 1.19967C16.0339 0.432733 14.9941 0.00129919 13.9095 0ZM12.2731 9.81845H5.72743C5.51043 9.81845 5.30231 9.73224 5.14887 9.5788C4.99543 9.42536 4.90922 9.21725 4.90922 9.00024C4.90922 8.78324 4.99543 8.57513 5.14887 8.42169C5.30231 8.26824 5.51043 8.18204 5.72743 8.18204H12.2731C12.4901 8.18204 12.6982 8.26824 12.8516 8.42169C13.0051 8.57513 13.0913 8.78324 13.0913 9.00024C13.0913 9.21725 13.0051 9.42536 12.8516 9.5788C12.6982 9.73224 12.4901 9.81845 12.2731 9.81845ZM13.9095 6.54563H4.09102C3.87402 6.54563 3.66591 6.45943 3.51246 6.30599C3.35902 6.15254 3.27282 5.94443 3.27282 5.72743C3.27282 5.51043 3.35902 5.30231 3.51246 5.14887C3.66591 4.99543 3.87402 4.90922 4.09102 4.90922H13.9095C14.1265 4.90922 14.3346 4.99543 14.488 5.14887C14.6415 5.30231 14.7277 5.51043 14.7277 5.72743C14.7277 5.94443 14.6415 6.15254 14.488 6.30599C14.3346 6.45943 14.1265 6.54563 13.9095 6.54563Z" fill="#993333"/>
</svg>
