<svg width="18" height="13" viewBox="0 0 18 13" fill="none" xmlns="http://www.w3.org/2000/svg">
<g opacity="0.65">
<path d="M17.193 0.871387L11.9324 6.09812L17.193 11.3249C17.2881 11.1261 17.3458 10.9064 17.3458 10.6717V1.52453C17.3458 1.28985 17.2881 1.07015 17.193 0.871387ZM15.8212 0H1.52453C1.28985 0 1.07015 0.0576951 0.871387 0.152792L7.59501 6.84253C8.1895 7.43703 9.15626 7.43703 9.75076 6.84253L16.4744 0.152792C16.2756 0.0576951 16.0559 0 15.8212 0ZM0.152792 0.871387C0.057695 1.07015 0 1.28985 0 1.52453V10.6717C0 10.9064 0.057695 11.1261 0.152792 11.3249L5.4134 6.09812L0.152792 0.871387Z" fill="white"/>
<path d="M11.2138 6.81689L10.4694 7.56131C9.47884 8.55188 7.867 8.55188 6.87643 7.56131L6.13205 6.81689L0.871445 12.0436C1.07021 12.1387 1.28991 12.1964 1.52459 12.1964H15.8213C16.056 12.1964 16.2757 12.1387 16.4744 12.0436L11.2138 6.81689Z" fill="white"/>
</g>
</svg>
