<svg width="9" height="16" viewBox="0 0 9 16" fill="none" xmlns="http://www.w3.org/2000/svg">
<path d="M2.403 9.03129C2.34293 9.03129 1.02128 9.03129 0.420526 9.03129C0.100125 9.03129 0 8.91114 0 8.61076C0 7.80976 0 6.98874 0 6.18773C0 5.86733 0.12015 5.76721 0.420526 5.76721H2.403C2.403 5.70713 2.403 4.54568 2.403 4.00501C2.403 3.20401 2.54318 2.44305 2.94368 1.74218C3.3642 1.02128 3.96496 0.540676 4.72591 0.260325C5.22653 0.0801 5.72716 0 6.26783 0H8.23029C8.51064 0 8.63079 0.12015 8.63079 0.400501V2.68335C8.63079 2.9637 8.51064 3.08385 8.23029 3.08385C7.68961 3.08385 7.14894 3.08385 6.60826 3.10388C6.06758 3.10388 5.78723 3.36421 5.78723 3.92491C5.76721 4.52566 5.78723 5.10638 5.78723 5.72716H8.11014C8.43054 5.72716 8.55069 5.84731 8.55069 6.16771V8.59074C8.55069 8.91114 8.45056 9.01126 8.11014 9.01126C7.38924 9.01126 5.84731 9.01126 5.78723 9.01126V15.5394C5.78723 15.8798 5.68711 16 5.32666 16C4.48561 16 3.66458 16 2.82353 16C2.52315 16 2.403 15.8799 2.403 15.5795C2.403 13.4768 2.403 9.09136 2.403 9.03129Z" fill="#993333"/>
</svg>
