<svg width="19" height="19" viewBox="0 0 19 19" fill="none" xmlns="http://www.w3.org/2000/svg">
<mask id="mask0_46_25122" style="mask-type:luminance" maskUnits="userSpaceOnUse" x="0" y="0" width="19" height="19">
<path d="M0 0H19V19H0V0Z" fill="white"/>
</mask>
<g mask="url(#mask0_46_25122)">
<path fill-rule="evenodd" clip-rule="evenodd" d="M18.7681 4.19044C18.9165 4.3389 18.9999 4.54022 18.9999 4.75015C18.9999 4.96007 18.9165 5.16139 18.7681 5.30985L11.2472 12.8307C11.0988 12.9791 10.8975 13.0625 10.6875 13.0625C10.4776 13.0625 10.2763 12.9791 10.1278 12.8307L6.7292 9.43206L1.35141 14.8099C1.2021 14.9541 1.00213 15.0339 0.794553 15.0321C0.586981 15.0303 0.388421 14.947 0.241639 14.8002C0.094858 14.6534 0.0115993 14.4549 0.00979555 14.2473C0.0079918 14.0397 0.0877874 13.8397 0.231996 13.6904L6.1695 7.75294C6.31796 7.60452 6.51928 7.52115 6.7292 7.52115C6.93913 7.52115 7.14045 7.60452 7.28891 7.75294L10.6875 11.1516L17.6487 4.19044C17.7971 4.04202 17.9984 3.95865 18.2084 3.95865C18.4183 3.95865 18.6196 4.04202 18.7681 4.19044Z" fill="#993333"/>
<path fill-rule="evenodd" clip-rule="evenodd" d="M12.666 4.7501C12.666 4.54014 12.7494 4.33878 12.8979 4.19031C13.0464 4.04184 13.2477 3.95844 13.4577 3.95844H18.2077C18.4176 3.95844 18.619 4.04184 18.7675 4.19031C18.9159 4.33878 18.9993 4.54014 18.9993 4.7501V9.5001C18.9993 9.71006 18.9159 9.91143 18.7675 10.0599C18.619 10.2084 18.4176 10.2918 18.2077 10.2918C17.9977 10.2918 17.7964 10.2084 17.6479 10.0599C17.4994 9.91143 17.416 9.71006 17.416 9.5001V5.54177H13.4577C13.2477 5.54177 13.0464 5.45836 12.8979 5.30989C12.7494 5.16143 12.666 4.96006 12.666 4.7501Z" fill="#993333"/>
</g>
</svg>
