<svg width="16" height="16" viewBox="0 0 16 16" fill="none" xmlns="http://www.w3.org/2000/svg">
<path d="M9.46827 7.99942C9.46827 8.72908 8.87672 9.32062 8.14707 9.32062C7.41741 9.32062 6.82587 8.72908 6.82587 7.99942C6.82587 7.26977 7.41741 6.67822 8.14707 6.67822C8.87672 6.67822 9.46827 7.26977 9.46827 7.99942Z" fill="#993333"/>
<path d="M10.3785 4.00708H5.91575C4.94434 4.00708 4.15414 4.79728 4.15414 5.76868V10.2314C4.15414 11.2028 4.94434 11.993 5.91575 11.993H10.3785C11.3499 11.993 12.1401 11.2028 12.1401 10.2314V5.76868C12.1401 4.79728 11.3499 4.00708 10.3785 4.00708ZM8.14711 10.202C6.93292 10.202 5.9451 9.21422 5.9451 8.00004C5.9451 6.78586 6.93292 5.79804 8.14711 5.79804C9.36129 5.79804 10.3491 6.78586 10.3491 8.00004C10.3491 9.21422 9.36129 10.202 8.14711 10.202ZM10.6721 5.91548C10.4288 5.91548 10.2317 5.71833 10.2317 5.47508C10.2317 5.23183 10.4288 5.03468 10.6721 5.03468C10.9153 5.03468 11.1125 5.23183 11.1125 5.47508C11.1125 5.71833 10.9153 5.91548 10.6721 5.91548Z" fill="#993333"/>
<path d="M11.6995 0.483887H4.5944C2.4089 0.483887 0.630798 2.26202 0.630798 4.44749V11.5526C0.630798 13.7381 2.40893 15.5162 4.5944 15.5162H11.6995C13.885 15.5162 15.6631 13.7381 15.6631 11.5526V4.44749C15.6631 2.26199 13.885 0.483887 11.6995 0.483887ZM13.0207 10.2314C13.0207 11.6884 11.8353 12.8738 10.3783 12.8738H5.9156C4.45861 12.8738 3.2732 11.6884 3.2732 10.2314V5.76869C3.2732 4.3117 4.45861 3.12629 5.9156 3.12629H10.3783C11.8353 3.12629 13.0207 4.3117 13.0207 5.76869V10.2314Z" fill="#993333"/>
</svg>
