<svg width="18" height="20" viewBox="0 0 18 20" fill="none" xmlns="http://www.w3.org/2000/svg">
<path d="M12.2907 0C11.2245 0.0737499 9.97824 0.756249 9.25199 1.645C8.58949 2.45125 8.04449 3.64875 8.25699 4.8125C9.42199 4.84875 10.6257 4.15 11.3232 3.24625C11.9757 2.405 12.4695 1.215 12.2907 0Z" fill="#993333"/>
<path d="M16.5044 6.71038C15.4807 5.42664 14.0419 4.68164 12.6832 4.68164C10.8895 4.68164 10.1307 5.54039 8.88447 5.54039C7.59948 5.54039 6.62324 4.68414 5.072 4.68414C3.54826 4.68414 1.92577 5.61538 0.897025 7.20787C-0.549215 9.45036 -0.301717 13.6666 2.04202 17.2578C2.88076 18.5428 4.00075 19.9878 5.46574 20.0003C6.76948 20.0128 7.13698 19.164 8.90322 19.1553C10.6695 19.1453 11.0045 20.0115 12.3057 19.9978C13.7719 19.9865 14.9532 18.3853 15.7919 17.1003C16.3932 16.1791 16.6169 15.7153 17.0832 14.6753C13.6919 13.3841 13.1482 8.56161 16.5044 6.71038Z" fill="#993333"/>
</svg>
