<svg width="128" height="36" viewBox="0 0 128 36" fill="none" xmlns="http://www.w3.org/2000/svg">
<rect width="128" height="36" rx="5" fill="white"/>
<path d="M56.6774 13.0469V23H55.3786V13.0469H56.6774ZM59.8766 13.0469V14.127H52.1862V13.0469H59.8766ZM61.9069 16.7656V23H60.6423V15.6035H61.8727L61.9069 16.7656ZM64.2175 15.5625L64.2106 16.7383C64.1058 16.7155 64.0056 16.7018 63.9099 16.6973C63.8187 16.6882 63.7139 16.6836 63.5954 16.6836C63.3037 16.6836 63.0462 16.7292 62.8229 16.8203C62.5996 16.9115 62.4105 17.0391 62.2556 17.2031C62.1006 17.3672 61.9776 17.5632 61.8864 17.791C61.7998 18.0143 61.7429 18.2604 61.7155 18.5293L61.36 18.7344C61.36 18.2878 61.4033 17.8685 61.4899 17.4766C61.5811 17.0846 61.7201 16.7383 61.9069 16.4375C62.0938 16.1322 62.3307 15.8952 62.6179 15.7266C62.9095 15.5534 63.2559 15.4668 63.6569 15.4668C63.7481 15.4668 63.8529 15.4782 63.9714 15.501C64.0899 15.5192 64.1719 15.5397 64.2175 15.5625ZM68.319 23.1367C67.8041 23.1367 67.3369 23.0501 66.9177 22.877C66.503 22.6992 66.1452 22.4508 65.8444 22.1318C65.5482 21.8128 65.3203 21.4346 65.1608 20.9971C65.0013 20.5596 64.9216 20.0811 64.9216 19.5615V19.2744C64.9216 18.6729 65.0104 18.1374 65.1882 17.668C65.3659 17.194 65.6074 16.793 65.9128 16.4648C66.2181 16.1367 66.5645 15.8883 66.9518 15.7197C67.3392 15.5511 67.7403 15.4668 68.155 15.4668C68.6836 15.4668 69.1393 15.5579 69.5222 15.7402C69.9095 15.9225 70.2263 16.1777 70.4724 16.5059C70.7184 16.8294 70.9007 17.2122 71.0192 17.6543C71.1377 18.0918 71.197 18.5703 71.197 19.0898V19.6572H65.6735V18.625H69.9323V18.5293C69.9141 18.2012 69.8457 17.8822 69.7272 17.5723C69.6133 17.2624 69.431 17.0072 69.1804 16.8066C68.9297 16.6061 68.5879 16.5059 68.155 16.5059C67.8679 16.5059 67.6035 16.5674 67.362 16.6904C67.1205 16.8089 66.9131 16.9867 66.7399 17.2236C66.5668 17.4606 66.4323 17.75 66.3366 18.0918C66.2409 18.4336 66.1931 18.8278 66.1931 19.2744V19.5615C66.1931 19.9124 66.2409 20.2428 66.3366 20.5527C66.4369 20.8581 66.5804 21.127 66.7673 21.3594C66.9587 21.5918 67.1888 21.7741 67.4577 21.9062C67.7311 22.0384 68.041 22.1045 68.3874 22.1045C68.834 22.1045 69.2123 22.0133 69.5222 21.8311C69.8321 21.6488 70.1032 21.4049 70.3356 21.0996L71.1013 21.708C70.9418 21.9495 70.739 22.1797 70.4929 22.3984C70.2468 22.6172 69.9437 22.7949 69.5837 22.9316C69.2282 23.0684 68.8067 23.1367 68.319 23.1367ZM68.5309 12.5L70.2263 14.3662V14.4346H69.1735L68.1481 13.2793L67.1296 14.4346H66.0905V14.3594L67.7653 12.5H68.5309ZM73.9382 17.1826V23H72.6735V15.6035H73.8698L73.9382 17.1826ZM73.6374 19.0215L73.111 19.001C73.1156 18.4951 73.1908 18.028 73.3366 17.5996C73.4824 17.1667 73.6875 16.7907 73.9518 16.4717C74.2162 16.1527 74.5306 15.9066 74.8952 15.7334C75.2643 15.5557 75.6722 15.4668 76.1188 15.4668C76.4834 15.4668 76.8115 15.5169 77.1032 15.6172C77.3949 15.7129 77.6432 15.8678 77.8483 16.082C78.058 16.2962 78.2175 16.5742 78.3268 16.916C78.4362 17.2533 78.4909 17.6657 78.4909 18.1533V23H77.2194V18.1396C77.2194 17.7523 77.1625 17.4424 77.0485 17.21C76.9346 16.973 76.7682 16.8021 76.5495 16.6973C76.3307 16.5879 76.0619 16.5332 75.7429 16.5332C75.4284 16.5332 75.1413 16.5993 74.8815 16.7314C74.6263 16.8636 74.4053 17.0459 74.2184 17.2783C74.0362 17.5107 73.8926 17.7773 73.7878 18.0781C73.6875 18.3743 73.6374 18.6888 73.6374 19.0215ZM85.9899 13.0469V23H83.946V13.0469H85.9899ZM96.0866 17.791V18.2627C96.0866 19.0192 95.9841 19.6982 95.779 20.2998C95.5739 20.9014 95.2845 21.4141 94.9108 21.8379C94.5371 22.2572 94.0905 22.5785 93.571 22.8018C93.056 23.0251 92.4841 23.1367 91.8552 23.1367C91.2308 23.1367 90.6589 23.0251 90.1393 22.8018C89.6244 22.5785 89.1778 22.2572 88.7995 21.8379C88.4212 21.4141 88.1273 20.9014 87.9177 20.2998C87.7126 19.6982 87.61 19.0192 87.61 18.2627V17.791C87.61 17.0299 87.7126 16.3509 87.9177 15.7539C88.1227 15.1523 88.4121 14.6396 88.7858 14.2158C89.1641 13.792 89.6107 13.4684 90.1257 13.2451C90.6452 13.0218 91.2171 12.9102 91.8415 12.9102C92.4704 12.9102 93.0423 13.0218 93.5573 13.2451C94.0768 13.4684 94.5235 13.792 94.8972 14.2158C95.2754 14.6396 95.5671 15.1523 95.7722 15.7539C95.9818 16.3509 96.0866 17.0299 96.0866 17.791ZM94.0153 18.2627V17.7773C94.0153 17.2487 93.9675 16.7839 93.8718 16.3828C93.7761 15.9818 93.6348 15.6445 93.4479 15.3711C93.2611 15.0977 93.0332 14.8926 92.7643 14.7559C92.4955 14.6146 92.1878 14.5439 91.8415 14.5439C91.4951 14.5439 91.1875 14.6146 90.9186 14.7559C90.6543 14.8926 90.4287 15.0977 90.2419 15.3711C90.0596 15.6445 89.9206 15.9818 89.8249 16.3828C89.7292 16.7839 89.6813 17.2487 89.6813 17.7773V18.2627C89.6813 18.7868 89.7292 19.2516 89.8249 19.6572C89.9206 20.0583 90.0619 20.3978 90.2487 20.6758C90.4356 20.9492 90.6634 21.1566 90.9323 21.2979C91.2012 21.4391 91.5088 21.5098 91.8552 21.5098C92.2015 21.5098 92.5091 21.4391 92.778 21.2979C93.0469 21.1566 93.2725 20.9492 93.4548 20.6758C93.6371 20.3978 93.7761 20.0583 93.8718 19.6572C93.9675 19.2516 94.0153 18.7868 94.0153 18.2627ZM102.745 20.3955C102.745 20.2178 102.717 20.0583 102.663 19.917C102.613 19.7712 102.517 19.639 102.376 19.5205C102.234 19.3975 102.036 19.2767 101.781 19.1582C101.526 19.0397 101.195 18.9167 100.79 18.7891C100.339 18.6432 99.9102 18.4792 99.5046 18.2969C99.1035 18.1146 98.7481 17.9027 98.4382 17.6611C98.1328 17.415 97.8913 17.1302 97.7136 16.8066C97.5404 16.4831 97.4538 16.1071 97.4538 15.6787C97.4538 15.264 97.5449 14.888 97.7272 14.5508C97.9095 14.209 98.1647 13.9173 98.4929 13.6758C98.821 13.4297 99.2084 13.2406 99.655 13.1084C100.106 12.9762 100.601 12.9102 101.138 12.9102C101.872 12.9102 102.512 13.0423 103.059 13.3066C103.606 13.571 104.03 13.9333 104.331 14.3936C104.636 14.8538 104.789 15.3802 104.789 15.9727H102.752C102.752 15.681 102.69 15.4258 102.567 15.207C102.449 14.9837 102.266 14.8083 102.02 14.6807C101.779 14.5531 101.473 14.4893 101.104 14.4893C100.749 14.4893 100.452 14.5439 100.216 14.6533C99.9785 14.7581 99.8008 14.9017 99.6823 15.084C99.5638 15.2617 99.5046 15.4622 99.5046 15.6855C99.5046 15.8542 99.5456 16.0068 99.6276 16.1436C99.7142 16.2803 99.8418 16.4079 100.01 16.5264C100.179 16.6449 100.386 16.7565 100.633 16.8613C100.879 16.9661 101.163 17.0687 101.487 17.1689C102.029 17.333 102.506 17.5176 102.916 17.7227C103.33 17.9277 103.677 18.1579 103.955 18.4131C104.233 18.6683 104.442 18.9577 104.584 19.2812C104.725 19.6048 104.796 19.9717 104.796 20.3818C104.796 20.8148 104.711 21.2021 104.543 21.5439C104.374 21.8857 104.13 22.1751 103.811 22.4121C103.492 22.6491 103.112 22.8291 102.67 22.9521C102.228 23.0752 101.733 23.1367 101.186 23.1367C100.694 23.1367 100.209 23.0729 99.7302 22.9453C99.2516 22.8132 98.8164 22.6149 98.4245 22.3506C98.0371 22.0863 97.7272 21.749 97.4948 21.3389C97.2624 20.9287 97.1462 20.4434 97.1462 19.8828H99.2038C99.2038 20.1927 99.2516 20.4548 99.3474 20.6689C99.4431 20.8831 99.5775 21.0563 99.7507 21.1885C99.9284 21.3206 100.138 21.4163 100.38 21.4756C100.626 21.5348 100.895 21.5645 101.186 21.5645C101.542 21.5645 101.833 21.5143 102.061 21.4141C102.294 21.3138 102.465 21.1748 102.574 20.9971C102.688 20.8193 102.745 20.6188 102.745 20.3955Z" fill="#333333"/>
<path d="M34.2907 8C33.2245 8.07375 31.9782 8.75625 31.252 9.645C30.5895 10.4512 30.0445 11.6487 30.257 12.8125C31.422 12.8487 32.6257 12.15 33.3232 11.2462C33.9757 10.405 34.4695 9.215 34.2907 8Z" fill="#993333"/>
<path d="M38.5044 14.7104C37.4807 13.4266 36.0419 12.6816 34.6832 12.6816C32.8895 12.6816 32.1307 13.5404 30.8845 13.5404C29.5995 13.5404 28.6232 12.6841 27.072 12.6841C25.5483 12.6841 23.9258 13.6154 22.897 15.2079C21.4508 17.4504 21.6983 21.6666 24.042 25.2578C24.8808 26.5428 26.0008 27.9878 27.4657 28.0003C28.7695 28.0128 29.137 27.164 30.9032 27.1553C32.6695 27.1453 33.0045 28.0115 34.3057 27.9978C35.7719 27.9865 36.9532 26.3853 37.7919 25.1003C38.3932 24.1791 38.6169 23.7153 39.0832 22.6753C35.6919 21.3841 35.1482 16.5616 38.5044 14.7104Z" fill="#993333"/>
</svg>
