<svg width="20" height="21" viewBox="0 0 20 21" fill="none" xmlns="http://www.w3.org/2000/svg">
<path d="M10.7677 14.5351L7.70685 17.596L7.70677 17.5961L7.7067 17.5962C6.44094 18.862 4.38126 18.8621 3.11535 17.5962C2.50209 16.9829 2.16444 16.1676 2.16444 15.3004C2.16444 14.4333 2.50209 13.6181 3.11513 13.0049L3.11535 13.0047L6.17623 9.94372C6.5988 9.52107 6.5988 8.83581 6.17615 8.41324C5.75358 7.99067 5.06832 7.99067 4.64568 8.41324L1.5848 11.4742L1.58415 11.4749C0.56261 12.4968 0 13.8554 0 15.3004C0 16.7458 0.562826 18.1046 1.58487 19.1266C2.63982 20.1815 4.02542 20.709 5.4111 20.709C6.79677 20.709 8.18244 20.1815 9.23725 19.1266L9.23732 19.1265L12.2982 16.0655C12.7208 15.643 12.7208 14.9577 12.2981 14.5351C11.8756 14.1125 11.1904 14.1125 10.7677 14.5351ZM20.0051 6.11749C20.0051 4.67215 19.4422 3.31332 18.4202 2.29127C16.3103 0.18152 12.8775 0.181592 10.7678 2.29127L10.7675 2.29163L7.7067 5.35236C7.28406 5.77493 7.28406 6.46027 7.7067 6.88284C7.80708 6.9835 7.92636 7.06332 8.0577 7.11773C8.18903 7.17213 8.32982 7.20004 8.47198 7.19986C8.74888 7.19986 9.02593 7.09416 9.23718 6.88284L12.298 3.82211L12.2983 3.82175C13.5641 2.55598 15.6238 2.55591 16.8897 3.82175C17.5029 4.435 17.8407 5.25035 17.8407 6.11749C17.8407 6.98457 17.503 7.79977 16.8899 8.41303L16.8897 8.41324L13.8288 11.4742C13.4062 11.8968 13.4062 12.582 13.8289 13.0047C13.9293 13.1053 14.0485 13.1851 14.1799 13.2395C14.3112 13.2939 14.4519 13.3219 14.5941 13.3217C14.8711 13.3217 15.148 13.216 15.3594 13.0047L18.4202 9.94372L18.4209 9.94299C19.4424 8.92109 20.0051 7.56247 20.0051 6.11749Z" fill="#993333"/>
<path d="M6.17636 14.5351C6.27673 14.6357 6.39601 14.7156 6.52732 14.77C6.65864 14.8244 6.79942 14.8523 6.94156 14.8521C7.21853 14.8521 7.49551 14.7464 7.70683 14.5351L13.8287 8.4132C14.2514 7.99063 14.2514 7.30537 13.8287 6.88272C13.4062 6.46015 12.7209 6.46015 12.2983 6.88272L6.17636 13.0046C5.75371 13.4273 5.75371 14.1125 6.17636 14.5351Z" fill="#993333"/>
</svg>
