<svg width="283" height="65" viewBox="0 0 283 65" fill="none" xmlns="http://www.w3.org/2000/svg">
<path fill-rule="evenodd" clip-rule="evenodd" d="M30.3738 0.104982C29.7004 2.12103 28.6262 3.04512 24.4275 5.21829C20.4678 7.26736 19.589 8.51717 20.2867 11.1065C20.5072 11.9237 20.5422 11.943 21.2035 11.6073C26.2467 9.05024 34.8166 9.06746 39.8576 11.646C40.4638 11.9559 40.4151 11.9832 40.6405 11.2069C41.4041 8.57313 40.5625 7.31614 36.6937 5.30941C32.5057 3.13695 31.3965 2.23941 30.6844 0.446489C30.4948 -0.0306174 30.4389 -0.0916012 30.3738 0.104982ZM239.938 3.71092C239.414 4.0101 237.32 5.16951 235.286 6.28731C230.73 8.79267 231.054 8.46695 232.355 9.22745C233.617 9.96571 233.498 9.95495 234.894 9.44771C235.503 9.22673 237.29 8.57815 238.865 8.00777C242.789 6.58505 243.1 6.46093 243.091 6.3239C243.074 6.07279 241.221 3.213 241.061 3.19076C240.968 3.17713 240.463 3.41174 239.938 3.71092ZM127.284 5.85396C125.153 7.19346 123.395 8.33278 123.377 8.38659C123.332 8.52075 125.466 9.7311 125.748 9.7311C125.874 9.7311 127.035 9.29561 128.329 8.76326C131.41 7.49551 130.937 7.50053 133.939 8.70873C135.337 9.27121 136.568 9.7311 136.675 9.7311C136.907 9.7311 139.091 8.53726 139.091 8.41027C139.091 8.3622 138.112 7.71433 136.915 6.97105C135.717 6.22704 134.04 5.18027 133.187 4.64361C132.335 4.10767 131.529 3.61263 131.398 3.54375C131.194 3.43757 130.59 3.77692 127.284 5.85396ZM15.2529 6.8706C15.343 7.8693 15.0382 8.89527 14.2574 10.2204C13.9039 10.8202 13.614 11.3325 13.614 11.3583C13.614 11.3841 13.9761 11.4049 14.4191 11.4049C15.4461 11.4056 16.433 11.849 17.3268 12.7129C17.6732 13.0479 17.9874 13.3076 18.0253 13.2904C18.0625 13.2732 18.5792 12.9747 19.1739 12.6275L20.2538 11.9961L20.0227 11.3117C19.657 10.2305 19.7657 8.75249 20.2703 7.93818C20.48 7.60026 20.651 7.30825 20.651 7.29032C20.651 7.27166 19.9668 7.26162 19.1302 7.26807C17.3469 7.28171 16.5868 7.121 15.7667 6.55492L15.1885 6.15601L15.2529 6.8706ZM45.2786 6.50469C44.5516 7.08441 43.7243 7.27166 41.9094 7.26807C41.0391 7.26592 40.3435 7.29462 40.3643 7.33193C41.1157 8.66138 41.3168 9.79639 41.0119 10.9881C40.911 11.382 40.8108 11.7744 40.7887 11.8605C40.7658 11.9516 41.2145 12.2867 41.87 12.6677L42.9914 13.3191L43.6262 12.7179C44.5351 11.8555 45.5427 11.4056 46.564 11.4049C47.495 11.4049 47.4793 11.4293 47.0048 10.7384C46.1124 9.43838 45.7588 8.44757 45.7588 7.25014C45.7588 6.64173 45.7524 6.14381 45.7453 6.14381C45.7381 6.14381 45.5277 6.30596 45.2786 6.50469ZM28.4831 11.3755C28.453 11.4243 28.5332 12.8363 28.6606 14.5122L28.8931 17.56L28.4995 17.8872C27.9098 18.3779 27.8526 18.327 27.703 17.1747C27.3216 14.2339 26.963 11.7256 26.9122 11.6424C26.8614 11.5599 25.9117 11.712 25.8037 11.8196C25.7629 11.8605 26.062 13.6398 26.8478 18.0414C27.2693 20.399 27.3166 21.2764 27.0174 21.1616C26.9108 21.12 26.7483 21.1494 26.6567 21.2255C26.4406 21.4048 26.4485 21.4206 26.2216 20.3731C26.1143 19.8802 25.7793 18.4274 25.4773 17.1446C25.1753 15.8625 24.8003 14.2554 24.6443 13.5731C24.308 12.1052 24.3531 12.1676 23.7584 12.3462C23.1071 12.5414 23.1007 12.3907 23.8707 15.1127C24.2522 16.4608 24.8955 18.7474 25.3006 20.1938C25.7064 21.6409 26.3018 23.7588 26.6238 24.8996C27.2357 27.0656 27.2457 27.189 26.8135 27.189C26.5773 27.189 26.4721 26.9594 25.8158 25.0072C23.6954 18.7007 21.8418 13.2761 21.7882 13.2222C21.7545 13.1885 21.5076 13.261 21.2393 13.3822C20.6639 13.642 20.6603 13.5774 21.3609 15.3509C21.6336 16.0419 21.9578 16.8755 22.0809 17.2049C22.2047 17.5334 23.1178 19.8738 24.1112 22.4064C26.1386 27.5728 26.0713 27.3554 25.6555 27.4042C25.4072 27.4329 25.3127 27.3569 25.1331 26.9852C24.8834 26.4672 22.8981 22.09 21.7824 19.5961C19.171 13.7589 19.4874 14.2927 18.8783 14.6973L18.3953 15.0173L19.6863 17.5456C20.3962 18.9368 21.8411 21.7751 22.8967 23.8542L24.8168 27.6331L24.5076 27.7744C24.338 27.8519 24.1842 27.9 24.1663 27.8813C24.1484 27.8627 23.6367 26.9859 23.0284 25.9334C22.4208 24.8816 21.27 22.8907 20.4721 21.5096C19.6734 20.1285 18.6307 18.3119 18.1548 17.4739C17.1844 15.7628 17.2746 15.8374 16.7257 16.2944L16.3177 16.633L18.2758 19.7009C19.3528 21.3883 20.4485 23.1102 20.7111 23.5278C20.973 23.9454 21.7474 25.1607 22.4315 26.229C23.6882 28.1913 23.7977 28.5034 23.2624 28.5916C23.1651 28.6081 21.5849 26.493 19.4237 23.4503C17.4034 20.607 15.6486 18.1469 15.5241 17.9826L15.2987 17.6841L14.933 18.035C14.7326 18.2272 14.568 18.4331 14.568 18.492C14.568 18.5508 16.4222 20.9643 18.6887 23.8542C20.9544 26.7449 22.8345 29.1771 22.8659 29.2588C22.9754 29.5465 22.5997 29.906 22.4043 29.7001C22.3106 29.6018 20.3404 27.3418 18.0253 24.6779C15.7109 22.0147 13.7672 19.7812 13.7063 19.716C13.5804 19.5789 13.0193 20.2067 13.0179 20.4851C13.0179 20.5798 13.4609 21.1179 14.0033 21.6811C14.5451 22.2443 16.1424 23.9145 17.5515 25.3918C18.9614 26.8697 20.6245 28.6095 21.2479 29.2574C22.3643 30.419 22.5511 30.7217 22.3585 31.0611C22.2555 31.2433 22.501 31.465 15.5227 24.8874C11.8786 21.4529 12.1505 21.6466 11.8378 22.2608L11.6073 22.7135L16.6713 27.0742C19.4566 29.4719 21.844 31.5267 21.9764 31.6394C22.1417 31.78 22.2054 31.9565 22.1796 32.2033L22.1424 32.5627L21.1112 31.7592C20.5444 31.3172 19.3371 30.3824 18.4275 29.6814C17.5186 28.9805 15.5177 27.4336 13.9812 26.2434C12.4447 25.0538 11.1271 24.0802 11.0527 24.0802C10.9396 24.0802 10.6319 24.7138 10.6319 24.9469C10.6319 25.0108 11.5658 25.6866 14.0914 27.448C20.895 32.194 22.0823 33.0743 22.0823 33.3699C22.0823 33.7745 22.5188 34.0213 16.0358 29.9519C12.8812 27.9724 10.2455 26.3524 10.1782 26.3524C10.0666 26.3524 9.8404 27.2844 9.93415 27.3569C9.95706 27.3748 10.4594 27.6603 11.0499 27.9925C13.5833 29.4167 16.5604 31.1006 18.8619 32.4121C19.5511 32.8045 20.5308 33.3598 21.0389 33.6461C21.7774 34.0622 21.9635 34.2229 21.9635 34.4446C21.9635 34.8105 22.6255 35.1061 15.7459 31.6716C11.2459 29.4253 9.60925 28.6605 9.5384 28.7717C9.33086 29.101 9.42819 29.7022 9.70801 29.8098C9.85543 29.8665 11.3447 30.5187 13.0179 31.2584C22.2512 35.3422 21.9556 35.1972 21.7402 35.5387C21.6586 35.6679 21.5556 35.6607 21.1756 35.5C20.9201 35.3909 19.3156 34.7718 17.6095 34.1225C15.9041 33.4732 13.8645 32.694 13.0773 32.3905C8.87499 30.7712 9.17413 30.8394 9.22351 31.5145L9.26073 32.0132L15.3731 34.0328C21.2493 35.9742 21.791 36.1938 21.3652 36.4578C21.298 36.4987 20.7748 36.3968 20.2023 36.2311C18.1255 35.6299 9.48831 33.2874 9.34661 33.2874C9.25715 33.2874 9.20061 33.4667 9.20061 33.7523V34.2172L10.7815 34.5874C12.3981 34.9655 13.2848 35.1664 16.4172 35.8645C21.1899 36.9285 21.1384 36.9148 21.1011 37.1078C21.0417 37.4235 20.7312 37.3891 15.338 36.4686C8.8342 35.3587 9.50691 35.4347 9.46397 35.7985C9.38955 36.4363 9.39169 36.437 14.9859 37.115C17.8721 37.4644 20.2839 37.7944 20.3447 37.8482C20.8993 38.3375 18.3187 38.2816 10.7156 37.6387L9.78458 37.5605L9.86688 37.9049C10.015 38.5248 10.0794 38.5478 11.6904 38.5643C12.5191 38.5721 13.9747 38.6123 14.9258 38.6539L16.6555 38.7286L16.614 39.027C16.5911 39.192 16.5539 39.3463 16.5303 39.37C16.5074 39.3944 15.1613 39.4618 13.5396 39.5206C11.9179 39.5787 10.5632 39.6541 10.5296 39.6885C10.3156 39.9023 11.5487 42.4514 12.7252 44.2286C22.2512 58.6165 43.5926 56.4268 50.2796 40.3758C50.7813 39.1712 51.0203 39.2666 47.4879 39.2666C44.4721 39.2666 44.3862 39.2595 44.3691 39.027C44.359 38.8957 44.3454 38.7207 44.339 38.6389C44.3304 38.5248 45.1226 38.4588 47.6331 38.3641C49.4509 38.2952 50.9609 38.2141 50.9888 38.1847C51.016 38.1546 51.0776 37.9472 51.1255 37.7234L51.2128 37.3159L50.1558 37.3927C49.574 37.435 47.4707 37.6129 45.4819 37.7887C41.9029 38.1044 40.8345 38.1001 40.7271 37.7693C40.7035 37.6954 41.6281 37.5168 43.0444 37.3202C52.3214 36.0352 51.5377 36.2017 51.5413 35.5151C51.5434 35.1901 51.522 35.175 51.1556 35.2503C50.9423 35.2941 49.7751 35.5129 48.5613 35.7368C45.0317 36.3875 41.8908 36.9715 40.9597 37.1501C40.1553 37.3044 40.083 37.3008 39.8998 37.0978C39.6622 36.8345 39.4561 36.9112 42.0611 36.2899C43.1761 36.0237 45.1083 35.5588 46.355 35.2568C47.6016 34.9547 49.2899 34.5472 50.1079 34.3521C51.6622 33.9804 51.7775 33.9137 51.7803 33.377C51.7825 32.9344 51.824 32.9279 48.7037 33.8355C38.4399 36.818 39.4518 36.5611 39.401 36.2017C39.3731 36.0087 39.4447 35.9276 39.6987 35.8659C39.8827 35.8214 42.2071 35.0279 44.8643 34.1031C47.5208 33.1783 50.0821 32.2872 50.5566 32.1229C51.6687 31.7369 51.7739 31.6487 51.6973 31.1651C51.6164 30.6536 51.9506 30.5596 47.3898 32.3791C45.1806 33.2601 42.6107 34.2839 41.6796 34.6541C40.7479 35.0243 39.8011 35.4046 39.5756 35.4993C39.1878 35.6621 39.1613 35.6578 39.1004 35.4247C39.026 35.1406 38.6016 35.3544 45.9378 31.9809C52.0945 29.1498 51.4926 29.4856 51.4425 28.9159C51.4196 28.6569 51.3824 28.4259 51.3595 28.4022C51.3373 28.3785 50.256 28.9102 48.9564 29.5839C47.6568 30.2575 45.8419 31.1974 44.9237 31.6731C44.0055 32.1488 42.3094 33.0291 41.1551 33.6289C40.0007 34.2287 39.021 34.6843 38.9781 34.6412C38.7326 34.3951 39.011 34.1225 40.2362 33.4072C40.9683 32.9796 41.8392 32.4673 42.172 32.2686C42.5048 32.0706 43.8774 31.267 45.2221 30.4835C50.5601 27.3755 51.0833 27.0484 51.0139 26.8654C50.9766 26.7678 50.9137 26.5591 50.8743 26.4012C50.772 25.993 50.8915 25.9327 47.7684 27.9588C46.204 28.9733 44.1186 30.3221 43.1346 30.9563C42.1505 31.5899 40.813 32.4544 40.1625 32.877C38.8392 33.7372 38.7813 33.758 38.7813 33.372C38.7813 33.1525 39.3144 32.7127 41.4943 31.1379C51.0504 24.2331 50.3619 24.7955 50.0313 24.1692L49.8137 23.7574L47.782 25.3839C37.9805 33.2271 38.6618 32.7155 38.6618 32.2277C38.6618 31.8991 41.3204 29.4533 48.2837 23.3771C49.2534 22.5305 49.2598 22.5155 48.9099 21.9393L48.6622 21.5326L47.3891 22.7781C46.6892 23.4632 45.2572 24.8565 44.2066 25.8753C43.156 26.8941 41.4821 28.5263 40.4874 29.5035C39.4876 30.4857 38.6217 31.244 38.5515 31.2003C38.1522 30.9535 38.543 30.4685 43.1353 25.5216C45.7259 22.7293 47.8443 20.3889 47.8414 20.32C47.8392 20.2505 47.7033 20.0323 47.5401 19.835L47.2424 19.4763L46.8581 19.8982C46.647 20.1299 45.1863 21.8475 43.6119 23.7151C41.1035 26.6896 38.4957 29.7682 38.3426 29.9361C38.2617 30.0244 38.0692 29.6649 38.067 29.4224C38.0663 29.3026 38.6689 28.4151 39.4075 27.4501C40.8259 25.5955 41.6796 24.4713 44.5551 20.673L46.3335 18.3241L45.9692 17.9589C45.5034 17.4918 45.5578 17.4459 44.1315 19.5122C43.4645 20.4793 42.2092 22.2923 41.3426 23.5421C40.4752 24.792 39.3967 26.3539 38.9459 27.0132C38.4943 27.6718 38.0313 28.3434 37.916 28.5041L37.7078 28.7968L37.4587 28.5471L37.2097 28.2975L40.7987 22.4789C42.7717 19.2783 44.3869 16.618 44.3869 16.5663C44.3869 16.4343 43.7421 15.8288 43.6055 15.8316C43.5432 15.8331 43.1632 16.4386 42.7617 17.1769C42.3595 17.9159 41.1322 20.1342 40.0337 22.1072C38.9358 24.0802 37.7622 26.1924 37.4265 26.8008C36.8032 27.9294 36.7037 28.0191 36.3702 27.7572C36.1591 27.5908 35.8264 28.3204 40.146 19.4907C41.6145 16.4903 42.3252 14.9162 42.2507 14.8272C42.1892 14.754 41.9766 14.5976 41.7777 14.4807C41.3397 14.2231 41.5172 13.939 40.1532 17.085C39.5828 18.4001 38.9387 19.8802 38.7219 20.3731C38.505 20.8668 37.979 22.0771 37.5532 23.0636C35.5136 27.7873 35.7269 27.3683 35.3583 27.3683C35.1071 27.3683 35.0327 27.3167 35.0585 27.1617C35.0899 26.973 38.7555 17.0764 39.6329 14.8128C39.8361 14.287 40.0279 13.7926 40.058 13.7144C40.1253 13.5415 39.1477 13.0199 39.0174 13.1591C38.9666 13.2136 38.4313 14.792 37.828 16.6668C34.5038 26.9989 34.4165 27.2514 34.1768 27.2091C33.7882 27.1409 33.7689 27.0254 34.0043 26.1688C34.1303 25.7103 34.6971 23.5873 35.2638 21.4493C35.8306 19.312 36.567 16.5412 36.9005 15.2914C37.6591 12.4503 37.657 12.494 37.0587 12.2845C36.4683 12.0772 36.4704 12.0736 36.1756 13.4382C34.3636 21.8131 34.4444 21.4773 34.287 21.2614C34.1954 21.1358 34.0608 21.0963 33.8998 21.148C33.5263 21.2664 33.5642 20.8137 34.3128 16.2284C35.0713 11.5786 35.0663 11.7472 34.4358 11.6166C33.7875 11.4824 33.8304 11.3404 33.4168 14.9879C32.9874 18.7797 33.0868 18.4726 32.4564 17.9646L31.9604 17.565L32.0377 16.2492C32.0806 15.5253 32.1665 14.2654 32.2281 13.4504C32.4048 11.1179 32.4406 11.2858 31.7572 11.2858H31.1746L31.0895 13.2883L31.0036 15.2914L30.3896 15.2763L29.7755 15.2605L29.7469 13.5422C29.7083 11.255 29.7176 11.2858 29.0649 11.2858C28.7751 11.2858 28.5131 11.326 28.4831 11.3755ZM13.0179 11.8612C12.3259 12.0923 11.5623 12.5306 9.32013 13.9856C6.28293 15.9558 4.57611 16.5778 2.9387 16.3109C2.17654 16.1868 2.18155 16.1696 2.75478 16.9229C3.73379 18.2107 4.00788 19.9678 3.81323 23.6993C3.55416 28.6763 4.30774 30.2755 7.12595 30.7239L7.61545 30.8014L7.74641 29.7812C8.57728 23.3305 11.9265 17.7099 17.2459 13.8414L17.5959 13.5867L16.9489 12.9546C15.7781 11.8117 14.3547 11.4157 13.0179 11.8612ZM45.7345 11.867C45.0167 12.1159 44.3669 12.5421 43.7844 13.1476L43.3729 13.5745L43.73 13.835C49.0322 17.7099 52.5797 23.7072 53.1866 29.8199L53.276 30.7167L53.7512 30.6952C54.7911 30.6486 56.1751 29.7747 56.7255 28.8169C57.24 27.9222 57.3037 27.2105 57.1563 24.0379C56.9495 19.5796 57.2064 18.0184 58.3657 16.684C58.7915 16.1947 58.7944 16.1975 57.9843 16.3073C56.2875 16.5376 54.6987 15.9579 51.663 13.9985C47.9824 11.6238 47.2238 11.3511 45.7345 11.867ZM192.944 11.717C190.624 12.0557 189.893 12.2042 188.769 12.5636C181.957 14.7447 177.842 20.7032 178.568 27.3346C179.663 37.3446 189.22 42.0927 202.576 39.2631C203.478 39.0715 204.324 38.8577 204.456 38.7874C204.691 38.6611 204.694 38.5564 204.664 32.0569L204.633 25.4556L200.13 25.424C197.654 25.4068 195.627 25.4276 195.627 25.4707C195.627 25.513 195.846 25.7864 196.114 26.0769C197.003 27.0441 196.995 26.9967 197.036 31.5769L197.073 35.6657L196.618 35.7619C195.239 36.0546 193.285 35.7949 191.819 35.1241C186.401 32.6431 185.112 21.3582 189.817 17.6038C192.509 15.4564 197.443 15.4327 201.146 17.5507L202.072 18.0809L202.041 15.2584L202.009 12.4366L201.413 12.2867C199.624 11.839 194.479 11.4932 192.944 11.717ZM265.702 11.7156C255.704 13.1462 250.251 20.0955 252.106 29.0429C253.859 37.4988 263.376 42.1831 272.853 39.2523C285.828 35.2403 286.553 16.9896 273.911 12.5859C271.859 11.8713 267.697 11.43 265.702 11.7156ZM157.673 12.093L147.569 12.1238L147.452 12.5715C147.388 12.8183 147.064 14.0688 146.733 15.3509C146.401 16.6338 146.096 17.8039 146.056 17.9517C145.971 18.2581 146.246 18.332 146.469 18.0629C147.229 17.1446 150.391 16.4709 152.659 16.7442L153.285 16.8196L153.284 26.3991C153.283 37.7141 153.291 37.628 152.147 38.8979C151.92 39.149 151.734 39.3893 151.734 39.4302C151.734 39.4718 154.23 39.5056 157.281 39.5056C160.331 39.5056 162.827 39.4604 162.827 39.4044C162.827 39.3492 162.715 39.2014 162.577 39.0772C162.149 38.6891 161.513 37.4766 161.303 36.6501C161.124 35.9412 161.102 34.865 161.1 26.3574L161.097 16.8562L161.515 16.76C163.81 16.2313 166.533 16.8433 167.218 18.0414C167.394 18.3492 167.54 18.1512 167.651 17.4574C167.694 17.1869 167.968 15.9285 168.26 14.6607C168.915 11.8168 168.914 11.9961 168.284 12.032C168.005 12.0485 163.23 12.0758 157.673 12.093ZM64.3056 12.22C64.3056 12.2731 64.4716 12.4754 64.6749 12.6684C65.8514 13.7883 65.8707 13.967 65.9359 24.3794C66.0146 36.965 65.9516 37.7277 64.7386 38.9438C64.501 39.1827 64.3056 39.4065 64.3056 39.4417C64.3056 39.4769 66.8018 39.5056 69.8519 39.5056C72.9027 39.5056 75.3982 39.4776 75.3982 39.4431C75.3982 39.4087 75.2057 39.0995 74.9709 38.7573C73.725 36.9414 73.7307 36.9988 73.7293 25.828L73.7286 16.275L74.4907 16.3367C77.4535 16.5749 79.0201 19.5409 78.2085 23.3786C77.8443 25.1012 75.7882 27.5477 74.704 27.5477C74.6267 27.5477 74.5637 27.6015 74.5637 27.6675C74.5637 27.7909 75.6673 27.8404 77.3662 27.7924C82.8774 27.6367 86.543 24.411 86.543 19.716C86.543 14.975 83.5888 12.5349 77.4857 12.2357C74.7691 12.103 64.3056 12.0901 64.3056 12.22ZM89.4729 12.2178C89.4729 12.2702 89.684 12.5199 89.9423 12.7731C91.131 13.9361 91.1647 14.3408 91.1189 26.9171L91.0816 36.9349L90.8075 37.6165C90.6565 37.9917 90.2901 38.57 89.9924 38.9022L89.4507 39.5056H94.9483C97.9719 39.5056 100.446 39.4776 100.446 39.4439C100.446 39.4101 100.215 39.0988 99.9335 38.7515C98.9831 37.5821 98.9552 37.3855 98.9552 31.8761V27.0563L102.581 27.0606C104.575 27.0627 106.228 27.0864 106.254 27.1122C106.401 27.26 106.273 36.7405 106.117 37.336C105.937 38.0176 105.469 38.7859 105.016 39.1432C104.864 39.2631 104.74 39.3929 104.74 39.4331C104.74 39.4733 107.209 39.5056 110.227 39.5056C113.245 39.5056 115.714 39.4718 115.714 39.4302C115.714 39.3893 115.528 39.149 115.301 38.8979C114.166 37.6387 114.17 37.6803 114.17 25.8143C114.17 13.774 114.146 14.0251 115.443 12.5859L115.86 12.1224H110.3C107.242 12.1224 104.74 12.1554 104.74 12.1948C104.74 12.2343 104.981 12.5356 105.276 12.8642C106.162 13.8522 106.204 14.0983 106.282 18.7445C106.327 21.4271 106.309 22.8111 106.23 22.8419C106.163 22.867 104.499 22.8742 102.532 22.8563L98.9552 22.8247L98.9194 19.6557C98.8665 14.9104 99.0497 13.8529 100.128 12.6978C100.355 12.4553 100.51 12.2264 100.473 12.1898C100.367 12.0836 89.4729 12.1116 89.4729 12.2178ZM125.613 12.1934C125.613 12.2336 125.851 12.5321 126.141 12.8556C127.436 14.2992 127.494 13.9648 124.481 22.4064C123.257 25.8373 122.451 28.1016 120.543 33.4667C119.38 36.7412 118.731 37.958 117.511 39.1468L117.204 39.446L121.427 39.4769C123.75 39.4948 125.676 39.4819 125.708 39.4496C125.741 39.4173 125.549 39.154 125.283 38.8642C124.07 37.5455 124.103 36.7807 125.537 32.9286L126.181 31.1953H130.46H134.738L135.554 33.6439C136.736 37.1896 136.726 37.5921 135.418 38.9373L134.866 39.5056H140.855C144.149 39.5056 146.844 39.4726 146.844 39.4317C146.844 39.3915 146.551 39.0406 146.192 38.6525C144.863 37.2133 144.45 36.4011 142.789 31.9723C141.235 27.8239 139.257 22.5937 138.924 21.7485C138.768 21.3539 138.288 20.0897 137.856 18.9382C137.424 17.7874 136.676 15.7965 136.193 14.5144L135.315 12.1827L130.465 12.1511C127.796 12.1339 125.613 12.1532 125.613 12.1934ZM208.938 12.2235C208.904 12.2788 209.066 12.5069 209.3 12.7315C210.503 13.8895 210.477 13.6032 210.477 26.1128V36.9349L210.202 37.6165C210.051 37.9917 209.684 38.57 209.386 38.9022L208.845 39.5056H214.412H219.978L219.43 38.8778C219.128 38.5327 218.762 37.9537 218.615 37.5921L218.349 36.9349L218.313 26.5913C218.27 14.0473 218.282 13.911 219.541 12.6863C219.771 12.4617 219.959 12.2429 219.959 12.1999C219.959 12.0836 209.01 12.1066 208.938 12.2235ZM229.74 12.192C229.74 12.2314 230.003 12.56 230.325 12.9216C231.365 14.0904 231.359 14.6421 230.278 17.6827C229.975 18.5379 229.089 21.0397 228.31 23.243C223.254 37.5426 223.354 37.2972 221.878 38.8979C221.61 39.1884 221.391 39.4439 221.391 39.4654C221.391 39.4876 223.296 39.5056 225.625 39.5056C227.954 39.5056 229.86 39.4611 229.86 39.4066C229.86 39.3527 229.718 39.1777 229.545 39.0184C228.199 37.7801 228.218 36.8388 229.666 32.9286L230.308 31.1953H234.587H238.865L239.323 32.5104C240.882 36.9887 240.906 37.4945 239.628 38.8491L239.009 39.5056H244.99C248.28 39.5056 250.971 39.4625 250.971 39.4094C250.971 39.3563 250.779 39.1282 250.545 38.9015C249.972 38.3476 249.04 37.0719 248.671 36.333C248.326 35.6442 247.974 34.7546 246.375 30.5208C245.744 28.8528 244.528 25.6314 243.67 23.3628C242.108 19.2281 240.935 16.1279 239.961 13.5573L239.439 12.1827L234.59 12.1511C231.923 12.1339 229.74 12.1525 229.74 12.192ZM268.264 15.9572C274.423 16.9588 277.175 29.0996 272.34 33.9467C268.669 37.6265 262.98 36.0058 261.003 30.7167C257.97 22.6051 261.76 14.8997 268.264 15.9572ZM130.841 20.6422C131.106 21.3826 131.571 22.6604 131.874 23.4826C132.908 26.2792 133.241 27.2342 133.2 27.2765C133.105 27.3712 127.582 27.3102 127.55 27.2141C127.53 27.1567 127.949 25.8495 128.48 24.3098C129.011 22.7694 129.616 21.0117 129.825 20.404C130.297 19.0315 130.261 19.0229 130.841 20.6422ZM234.546 19.5065C234.581 19.6212 235.047 20.8998 235.583 22.3461C237.02 26.2326 237.373 27.2299 237.327 27.2765C237.23 27.3726 231.708 27.3088 231.676 27.2112C231.656 27.1524 232.013 26.0332 232.469 24.7252C232.925 23.4166 233.53 21.6603 233.814 20.8216C234.332 19.2926 234.43 19.1183 234.546 19.5065ZM33.9628 23.616C33.7352 24.6277 33.4847 25.7914 33.406 26.2025C33.2615 26.9594 33.225 27.0075 32.8865 26.8776C32.6646 26.7922 32.6238 25.9958 32.8314 25.7878C32.9051 25.7146 32.9802 25.3738 32.9981 25.0302C33.0232 24.566 33.187 24.0924 33.64 23.1741C33.975 22.4954 34.2483 21.8748 34.2483 21.7951C34.2483 21.7148 34.277 21.6775 34.312 21.7126C34.3471 21.7478 34.1904 22.6044 33.9628 23.616ZM27.3409 23.4424C27.7216 24.2058 27.8626 24.6363 27.8762 25.0768C27.8891 25.475 27.9606 25.7225 28.0902 25.8172C28.3721 26.0238 28.3428 26.6717 28.0444 26.8317C27.8626 26.9293 27.7925 26.9228 27.7567 26.8059C27.6436 26.4392 26.734 22.5743 26.734 22.4617C26.734 22.283 26.8793 22.5176 27.3409 23.4424ZM2.90435 29.6262C2.09782 31.0001 1.28412 31.8324 0.425343 32.1617C-0.1665 32.3877 -0.150041 32.4687 0.533406 32.6876C1.22973 32.9107 2.14791 33.9331 2.88932 35.3099C3.64219 36.7082 3.57563 36.6659 3.94204 35.9742C4.45015 35.0136 5.38837 34.3714 6.81535 34.0077L7.5904 33.8104V32.5125C7.5904 31.2304 7.58682 31.2139 7.29269 31.1314C5.97449 30.7598 5.59448 30.6069 5.0785 30.2396C4.71495 29.9813 4.3242 29.548 4.05798 29.1082L3.62716 28.395L2.90435 29.6262ZM57.1126 28.7179C56.9409 29.5803 55.6191 30.6177 54.2271 30.9822L53.392 31.2017V32.5104V33.819L54.2028 34.0321C55.6427 34.4102 56.714 35.1771 57.1019 36.1084C57.3295 36.6544 57.4161 36.6257 57.7553 35.8917C58.5375 34.1993 59.6832 32.8956 60.6773 32.567L61.0859 32.4322L60.3731 32.0749C59.4671 31.6207 58.5683 30.6371 57.8862 29.3543C57.328 28.3032 57.2142 28.2099 57.1126 28.7179ZM6.69584 34.469C5.72687 34.7825 5.3762 34.9971 4.77434 35.6421C3.73236 36.7591 3.72234 36.8302 3.82325 42.8539C3.87692 46.0373 3.65221 47.0618 2.61308 48.3862L2.25955 48.8361L3.07682 48.7615C4.95039 48.59 6.36452 49.1611 10.0358 51.5703C13.5117 53.8518 15.1391 53.9688 17.0026 52.0718L17.5573 51.5072L16.5697 50.7417C11.6038 46.8896 8.36903 41.1442 7.70061 34.9913C7.61044 34.1605 7.62547 34.1684 6.69584 34.469ZM53.2882 34.4274C53.2467 34.5343 53.2131 34.7969 53.2131 35.01C53.2131 39.903 48.8633 47.6092 44.2975 50.8055C43.2777 51.5194 43.2977 51.429 43.9991 52.1314C45.917 54.0549 47.2975 53.8963 51.3624 51.2869C54.7538 49.1102 56.5065 48.4601 58.1017 48.788C58.7236 48.9157 58.8373 48.8569 58.5046 48.58C58.1603 48.2937 57.7538 47.5468 57.4239 46.5926L57.1019 45.6635L57.152 42.7341C57.2536 36.8122 57.2493 36.7799 56.2073 35.6471C55.4516 34.8249 53.4549 33.9905 53.2882 34.4274ZM129.609 41.8825C127.571 42.422 126.571 44.4854 127.471 46.2948C128.947 49.2637 133.54 48.2427 133.538 44.946C133.538 42.9343 131.534 41.3731 129.609 41.8825ZM84.4061 49.7358C82.6813 50.7122 82.6577 50.7352 83.12 51.0021C83.4364 51.1836 83.5144 51.1678 85.053 50.6068C86.9738 49.9065 86.8271 50.0364 86.4407 49.3763C86.0563 48.7184 86.2689 48.6811 84.4061 49.7358ZM196.075 49.7645C194.265 50.7818 194.276 50.7703 194.816 50.9942C195.194 51.1513 197.013 50.6469 198.165 50.0665L198.496 49.9001L198.129 49.3663C197.928 49.0728 197.752 48.8347 197.739 48.8375C197.726 48.8404 196.977 49.2572 196.075 49.7645ZM119.45 49.7681C117.934 50.7653 117.99 50.6972 118.492 50.9375C118.907 51.1363 118.93 51.1327 119.86 50.7574L120.805 50.375L121.721 50.7395C122.801 51.1693 122.763 51.1657 123.226 50.8837L123.588 50.6634L122.202 49.8075C120.561 48.7938 120.924 48.7988 119.45 49.7681ZM157.718 49.8082L156.366 50.6556L156.704 50.8794C157.14 51.1678 157.123 51.1693 158.187 50.7402L159.093 50.375L160.009 50.7395C161.083 51.1671 161.114 51.17 161.552 50.8808L161.888 50.6591L160.503 49.8054C159.742 49.3362 159.108 48.9537 159.094 48.9559C159.08 48.9581 158.461 49.3419 157.718 49.8082ZM232.933 49.7645C231.572 50.6175 231.541 50.6591 232.03 50.9569C232.331 51.1391 232.394 51.1298 233.316 50.7682L234.286 50.3879L235.203 50.7452C236.286 51.1678 236.265 51.1657 236.698 50.8794L237.037 50.6556L235.668 49.8039C234.915 49.3354 234.28 48.9545 234.256 48.9573C234.232 48.9609 233.638 49.324 232.933 49.7645ZM17.3519 52.3251C16.4816 53.219 15.5499 53.6538 14.4792 53.666C14.0033 53.671 13.6147 53.689 13.614 53.7062C13.614 53.7234 13.8831 54.212 14.2123 54.7917C15.1004 56.3579 15.3244 57.0775 15.2471 58.1214L15.1842 58.9802L15.6937 58.5899C16.4537 58.0088 17.1271 57.8603 19.0107 57.8603C19.9132 57.8603 20.651 57.8323 20.651 57.7986C20.651 57.7648 20.5258 57.5496 20.3726 57.32C19.7886 56.4483 19.6376 55.0815 19.994 53.9035C20.2495 53.059 20.2767 53.1028 19.0515 52.3875L17.9294 51.7325L17.3519 52.3251ZM41.9294 52.3839C41.3483 52.7319 40.8295 53.0303 40.7765 53.0483C40.7235 53.0662 40.7658 53.3223 40.8702 53.6172C41.3118 54.8663 41.2059 56.4002 40.6176 57.2691C40.4602 57.5015 40.3314 57.7096 40.3314 57.7311C40.3314 57.7534 41.1236 57.7978 42.0911 57.8301C44.0198 57.8954 44.5802 58.0332 45.3316 58.6301L45.7782 58.9845L45.7259 58.064C45.6622 56.9347 45.8891 56.2123 46.7651 54.7522C47.0971 54.1991 47.3691 53.7306 47.3683 53.7112C47.3683 53.6911 46.9797 53.6753 46.5038 53.6753C45.4225 53.6753 44.5945 53.3015 43.6405 52.3825L42.9857 51.7518L41.9294 52.3839ZM68.2488 51.9994C65.3963 52.6508 63.7052 55.0112 64.1654 57.7003C64.7236 60.9647 68.1007 62.4828 72.6279 61.5028L73.2562 61.3672L73.224 59.0161L73.1918 56.665L71.7305 56.6313C70.1832 56.5954 70.1675 56.6026 70.4523 57.1751C70.5919 57.4549 70.6277 57.866 70.6019 58.897L70.5676 60.2523L69.8884 60.2874C67.901 60.3922 66.5213 57.8811 67.1611 55.3269C67.6112 53.5326 69.8068 52.7663 71.7104 53.7399C72.4096 54.0972 72.4304 54.0764 72.3917 53.0555C72.3574 52.1493 72.3524 52.1364 71.9988 52.0345C71.3054 51.8358 69.059 51.815 68.2488 51.9994ZM93.9342 51.9994C91.2355 52.5884 89.4936 55.017 89.9201 57.597C90.8934 63.4858 100.351 63.0754 100.773 57.1256C101.028 53.5204 97.8581 51.1434 93.9342 51.9994ZM119.418 52.008C116.531 52.6357 114.836 55.22 115.48 58.0152C116.695 63.3 125.336 62.9628 126.22 57.5962C126.842 53.8203 123.544 51.1111 119.418 52.008ZM179.973 51.9965C177.795 52.475 176.116 54.1503 175.848 56.1125C175.279 60.2788 178.988 62.6378 184.308 61.4942L184.893 61.3679V58.9867V56.6047H183.481C181.94 56.6047 181.835 56.6356 182.094 57.0058C182.225 57.1937 182.269 57.6357 182.269 58.7836V60.3118H181.591C179.329 60.3118 177.903 57.1112 179.111 54.7443C179.891 53.2154 181.516 52.9299 183.849 53.9121C184.038 53.9917 184.058 53.9085 184.058 53.0483V52.0962L183.23 51.9592C182.188 51.7863 180.861 51.8021 179.973 51.9965ZM205.42 52.0668C201.553 53.082 200.231 57.5833 203.003 60.296C205.814 63.0475 211.128 61.906 212.275 58.3036C213.556 54.2809 209.846 50.9052 205.42 52.0668ZM164.909 52.0689C164.854 52.1586 164.378 53.8848 164.378 53.996C164.378 54.0434 164.605 53.9781 164.884 53.8518C165.209 53.704 165.66 53.6201 166.137 53.6179L166.883 53.6158V57.1249C166.883 60.4869 166.804 61.388 166.513 61.388C166.454 61.388 166.405 61.4418 166.405 61.5078C166.405 61.5824 167.101 61.6269 168.254 61.6269C169.271 61.6269 170.103 61.6061 170.103 61.5803C170.103 61.5544 169.996 61.299 169.867 61.0128C169.649 60.5328 169.631 60.22 169.628 57.0689L169.626 53.6459L170.073 53.5756C170.577 53.496 171.332 53.6366 171.6 53.8597C171.698 53.9415 171.806 53.9803 171.841 53.9458C171.945 53.8411 172.341 52.0618 172.263 52.0503C171.909 52.0001 164.942 52.0173 164.909 52.0689ZM234.004 52.0324C232.512 52.051 231.292 52.1048 231.295 52.1529C231.297 52.201 231.377 52.3452 231.473 52.4729C231.729 52.8115 231.725 60.7 231.47 61.1491C231.376 61.3134 231.297 61.4891 231.295 61.5394C231.292 61.5896 232.727 61.6169 234.481 61.5989L237.672 61.5674L237.926 60.5923L238.182 59.618L237.569 59.9036C237.07 60.1367 236.762 60.1898 235.905 60.1913C234.368 60.1927 234.392 60.2178 234.392 58.5734V57.2031H235.14C235.625 57.2031 235.983 57.2684 236.155 57.3889L236.419 57.5754V56.6714V55.7682H235.402H234.383L234.418 54.6023L234.451 53.4364L235.386 53.4587C235.999 53.4737 236.417 53.5455 236.604 53.6682C236.76 53.7708 236.92 53.8547 236.957 53.8547C237.08 53.8547 236.96 52.0209 236.837 52.0101C236.771 52.0044 235.497 52.0144 234.004 52.0324ZM238.805 52.0611C238.752 52.0941 238.619 52.4707 238.511 52.8983C238.404 53.3259 238.289 53.7679 238.255 53.8812C238.201 54.0678 238.245 54.0642 238.739 53.8454C239.139 53.6682 239.48 53.6136 240.028 53.6395L240.773 53.6753V57.2031C240.773 60.3276 240.749 60.7767 240.564 61.1376C240.45 61.3614 240.355 61.5631 240.355 61.586C240.355 61.6083 241.16 61.6269 242.144 61.6269C244.042 61.6269 244.085 61.6118 243.725 61.0608C243.541 60.7782 243.512 60.3326 243.48 57.193L243.444 53.6445L243.957 53.572C244.52 53.4917 245.271 53.6273 245.55 53.8597C245.774 54.0463 245.767 54.0577 245.94 53.1968C246.018 52.8022 246.112 52.3717 246.148 52.2404C246.21 52.0108 239.167 51.8386 238.805 52.0611ZM74.9216 52.1027C74.9216 52.1249 75.0153 52.3272 75.1298 52.5511C75.3159 52.9141 75.3388 53.3776 75.3388 56.8443C75.3388 60.3104 75.3159 60.7746 75.1298 61.1376C75.0153 61.3614 74.9216 61.5631 74.9216 61.586C74.9216 61.6083 75.7267 61.6269 76.7107 61.6269C77.6947 61.6269 78.4998 61.5982 78.4998 61.5631C78.4998 61.5279 78.4053 61.3557 78.2908 61.1799C77.9702 60.6899 77.9731 52.8754 78.2937 52.3846L78.5048 52.0611H76.7135C75.7274 52.0611 74.9216 52.0797 74.9216 52.1027ZM82.3693 52.3265C82.6921 52.7886 82.6413 53.0174 81.5456 56.0666C81.2386 56.9218 80.7734 58.2398 80.5122 58.9967C80.251 59.7529 79.8796 60.6311 79.6863 60.9475C79.4924 61.2646 79.3343 61.5466 79.3343 61.5752C79.3343 61.6039 79.9247 61.6269 80.6468 61.6269C81.3681 61.6269 81.9585 61.6018 81.9585 61.5717C81.9585 61.5408 81.8705 61.3306 81.7625 61.1039C81.5735 60.7064 81.5785 60.6576 81.9027 59.7242L82.2384 58.7571H83.8106H85.3829L85.6391 59.6245C85.9411 60.6469 85.9547 60.9044 85.7193 61.2158C85.4201 61.6126 85.4853 61.6269 87.5048 61.6269C89.5187 61.6269 89.6575 61.5925 89.2224 61.1979C88.8617 60.8707 88.7164 60.5514 87.6809 57.81C87.1699 56.4569 86.4786 54.6274 86.1444 53.7442C85.8102 52.8617 85.5368 52.1213 85.5368 52.0998C85.5368 52.0783 84.7825 52.0611 83.86 52.0611H82.1833L82.3693 52.3265ZM105.304 52.4499C105.624 53.0375 105.626 60.6899 105.307 61.1799C105.192 61.3557 105.098 61.5279 105.098 61.5631C105.098 61.5982 105.903 61.6269 106.887 61.6269C107.871 61.6269 108.676 61.6061 108.676 61.581C108.676 61.5559 108.596 61.3808 108.498 61.1921C108.362 60.9324 108.319 60.4101 108.319 59.0225L108.318 57.1945L109.6 57.2289L110.883 57.2626L110.871 59.0799C110.861 60.5522 110.821 60.9546 110.662 61.1986C110.554 61.3636 110.465 61.5279 110.465 61.5631C110.465 61.5982 111.27 61.6269 112.254 61.6269C113.238 61.6269 114.042 61.5867 114.039 61.5372C114.037 61.4884 113.958 61.3134 113.864 61.1491C113.609 60.7 113.605 52.8115 113.861 52.4729C114.158 52.0776 114.093 52.0611 112.254 52.0611C111.27 52.0611 110.465 52.0898 110.465 52.1249C110.465 52.1601 110.548 52.3157 110.65 52.4707C110.786 52.6802 110.84 53.1322 110.858 54.2306L110.883 55.7079L109.6 55.7423L108.318 55.776V54.24C108.318 53.0748 108.36 52.6486 108.493 52.4729C108.791 52.0776 108.726 52.0611 106.884 52.0611H105.092L105.304 52.4499ZM127.779 52.5238C128.111 53.1961 128.068 60.8614 127.73 61.2359C127.389 61.614 127.445 61.6269 129.37 61.6269C131.295 61.6269 131.352 61.614 131.011 61.2359C130.673 60.8614 130.629 53.1961 130.961 52.5238L131.189 52.0611H129.37H127.551L127.779 52.5238ZM135.752 52.107C135.752 52.1328 135.832 52.3071 135.93 52.4958C136.188 52.9909 136.188 60.6971 135.931 61.1491C135.837 61.3134 135.758 61.4884 135.756 61.5372C135.753 61.5867 136.563 61.6269 137.554 61.6269C139.573 61.6269 139.416 61.7259 139.037 60.6935C138.879 60.2601 138.854 59.6403 138.881 56.807L138.912 53.4364L139.21 53.4787C140.779 53.7019 141.057 56.2295 139.621 57.2181L139.27 57.4599L140.295 57.4133C143.715 57.259 144.682 53.1832 141.523 52.2304C141.011 52.0761 135.752 51.9635 135.752 52.107ZM144.749 52.3653C145.039 52.8094 145.052 60.7724 144.764 61.2151C144.662 61.3715 144.578 61.5279 144.578 61.5631C144.578 61.5982 145.383 61.6269 146.367 61.6269C147.351 61.6269 148.154 61.5867 148.152 61.5372C148.15 61.4884 148.071 61.3134 147.977 61.1491C147.851 60.9267 147.805 60.3814 147.803 59.0261L147.798 57.2031H149.11H150.423V58.9113C150.423 60.3836 150.39 60.6849 150.184 61.0888C150.053 61.3471 149.945 61.5738 149.945 61.5925C149.945 61.6118 150.75 61.6269 151.734 61.6269C152.718 61.6269 153.523 61.5982 153.523 61.5631C153.523 61.5279 153.43 61.3557 153.315 61.1799C153.126 60.8915 153.106 60.4675 153.106 56.8443C153.106 53.2205 153.126 52.7964 153.315 52.5087C153.43 52.333 153.523 52.1601 153.523 52.1249C153.523 52.0898 152.718 52.0611 151.734 52.0611C150.75 52.0611 149.945 52.0898 149.945 52.1249C149.945 52.1601 150.037 52.3294 150.149 52.5009C150.305 52.7398 150.365 53.1602 150.402 54.2902L150.451 55.7682H149.124H147.798V54.2364C147.798 53.0748 147.841 52.6486 147.974 52.4729C148.271 52.0776 148.206 52.0611 146.353 52.0611H144.551L144.749 52.3653ZM157.472 52.4105L157.734 52.767L157.047 54.7759C155.585 59.0448 155.013 60.5514 154.647 61.0917C154.488 61.3263 154.359 61.543 154.359 61.5724C154.359 61.6025 154.976 61.6269 155.73 61.6269C157.077 61.6269 157.281 61.5659 156.923 61.2682C156.673 61.0608 156.7 60.527 157.006 59.5728L157.268 58.7571H158.829H160.389L160.711 59.7142C161.031 60.6691 161.025 61.1146 160.687 61.3234C160.307 61.5587 160.721 61.6269 162.528 61.6269C163.611 61.6269 164.497 61.5968 164.497 61.5602C164.497 61.5236 164.339 61.2947 164.147 61.0522C163.937 60.7868 163.41 59.585 162.828 58.0396C162.294 56.6255 161.701 55.0658 161.511 54.5722C161.32 54.0793 161.036 53.3252 160.88 52.8983L160.596 52.1206L158.903 52.0876L157.209 52.0546L157.472 52.4105ZM186.821 52.5238C187.153 53.1961 187.109 60.8614 186.771 61.2359C186.43 61.6133 186.487 61.6269 188.352 61.6269C189.336 61.6269 190.139 61.5867 190.137 61.5372C190.135 61.4884 190.056 61.3134 189.962 61.1491C189.648 60.5981 189.709 52.7857 190.03 52.376L190.278 52.0611H188.435H186.592L186.821 52.5238ZM194.097 52.4205L194.366 52.7864L193.934 54.0678C192.678 57.7935 191.644 60.5471 191.329 61.0027C191.135 61.284 190.976 61.5401 190.976 61.5709C190.976 61.6018 191.593 61.6269 192.347 61.6269C193.766 61.6269 193.83 61.6047 193.536 61.2158C193.296 60.898 193.315 60.6146 193.641 59.6474L193.92 58.8173L195.481 58.7836L197.042 58.7506L197.373 59.768L197.703 60.786L197.441 61.1419C197.296 61.3378 197.178 61.5272 197.178 61.5623C197.178 61.5982 198.063 61.6269 199.146 61.6269C200.228 61.6269 201.114 61.6018 201.114 61.5709C201.114 61.5401 200.954 61.284 200.758 61.0027C200.562 60.7215 199.996 59.415 199.498 58.0999C198.108 54.4208 197.661 53.2441 197.431 52.6587L197.22 52.1206L195.524 52.0876L193.827 52.0546L194.097 52.4205ZM215.904 52.1055C215.904 52.1306 216.032 52.3861 216.187 52.6738C216.343 52.9615 217.052 54.7573 217.764 56.665C219.279 60.7215 219.384 60.8843 220.88 61.4949C221.99 61.9483 221.734 62.2984 223.057 58.5182C224.66 53.9415 225.167 52.5066 225.265 52.2705C225.345 52.0783 225.246 52.0611 224.079 52.0611H222.805L223.052 52.376C223.425 52.8503 223.367 53.2147 222.528 55.7108C221.597 58.4766 221.519 58.6868 221.447 58.6143C221.336 58.5031 219.244 52.4822 219.244 52.2741C219.244 52.0797 219.096 52.0611 217.574 52.0611C216.656 52.0611 215.904 52.0811 215.904 52.1055ZM226.165 52.1507C226.168 52.2002 226.248 52.3452 226.344 52.4729C226.601 52.8115 226.597 60.7 226.341 61.1491C226.247 61.3134 226.168 61.4884 226.166 61.5372C226.164 61.5867 226.967 61.6269 227.951 61.6269C228.935 61.6269 229.74 61.5982 229.74 61.5631C229.74 61.5279 229.646 61.3557 229.531 61.1799C229.211 60.6892 229.213 52.8747 229.534 52.3846L229.746 52.0611H227.954C226.968 52.0611 226.163 52.1012 226.165 52.1507ZM249.659 52.1414C249.659 52.1852 249.745 52.3165 249.849 52.4327C250.305 52.9371 250.364 53.45 250.364 56.9039C250.364 59.6123 250.329 60.3434 250.183 60.7301C249.811 61.7087 249.724 61.6269 251.146 61.6269C251.848 61.6269 252.401 61.5867 252.376 61.5372C251.932 60.6734 251.92 60.5715 251.952 58.087L251.985 55.6261L252.462 56.2216C252.725 56.5487 253.367 57.3745 253.889 58.0561C255.67 60.3785 256.979 61.4705 258.396 61.8127L258.724 61.8924L258.727 58.0231C258.73 53.6689 258.773 53.0024 259.09 52.4499L259.312 52.0611H257.986C256.732 52.0611 256.669 52.0725 256.845 52.2705C257.232 52.7068 257.565 57.942 257.203 57.9133C257.154 57.909 256.094 56.5918 254.847 54.9854L252.582 52.0639L251.12 52.0625C250.316 52.0618 249.659 52.0969 249.659 52.1414ZM263.038 52.267C263.401 52.6903 263.365 52.9112 262.549 55.2609C260.882 60.0628 260.456 61.1419 260.157 61.327C259.808 61.543 260.159 61.6269 261.408 61.6269C262.754 61.6269 262.958 61.5659 262.601 61.2682C262.351 61.0608 262.377 60.527 262.684 59.5728L262.946 58.7571H264.509H266.072L266.334 59.5728C266.64 60.527 266.667 61.0608 266.417 61.2682C266.045 61.5774 266.292 61.6269 268.206 61.6269C269.288 61.6269 270.174 61.5968 270.174 61.5602C270.174 61.5236 270.015 61.2947 269.821 61.0522C269.48 60.6261 269.186 59.9036 267.186 54.5722L266.266 52.1206L264.561 52.0876C262.936 52.056 262.864 52.0639 263.038 52.267ZM271.64 52.5525C271.87 53.0196 271.875 53.1114 271.732 54.3763C271.341 57.8466 270.904 60.7746 270.725 61.1204C270.619 61.327 270.532 61.525 270.532 61.5616C270.532 61.5975 271.095 61.6269 271.785 61.6269C273.011 61.6269 273.211 61.5623 272.866 61.2746C272.513 60.9812 272.525 60.5242 272.991 56.3357C273.101 55.3492 273.139 55.4037 274.169 57.9973C274.716 59.3748 275.238 60.5019 275.433 60.7236C275.869 61.2223 276.955 61.8235 277.025 61.6054C277.232 60.9604 278.138 57.998 278.426 57.0237C278.981 55.1447 278.935 55.0629 279.362 58.6688C279.577 60.4833 279.582 60.7129 279.419 61.1046C279.32 61.3421 279.239 61.5573 279.239 61.5817C279.239 61.6068 280.045 61.6269 281.029 61.6269C282.656 61.6269 283.064 61.5544 282.701 61.3299C282.133 60.9783 281.205 52.8345 281.673 52.3136L281.9 52.0611H280.168H278.437L278.072 53.2269C277.871 53.8683 277.483 55.111 277.208 55.9891C276.935 56.8673 276.67 57.5396 276.619 57.4836C276.569 57.4276 276.086 56.279 275.545 54.9309C275.004 53.5828 274.512 52.3853 274.451 52.2705C274.355 52.0883 274.149 52.0611 272.869 52.0611H271.397L271.64 52.5525ZM20.4134 53.5534C19.375 56.2912 20.2724 57.701 24.4332 59.8684C28.541 62.0079 29.704 62.9972 30.3667 64.9157C30.4332 65.1087 30.5234 64.9946 30.8404 64.3174C31.5768 62.744 32.8543 61.7489 36.5971 59.8325C40.4473 57.861 41.4041 56.4906 40.6885 53.9745C40.463 53.1817 40.4373 53.1731 39.5356 53.5813C34.1524 56.0157 26.4463 55.9977 21.3144 53.539C20.5837 53.1889 20.5515 53.1889 20.4134 53.5534ZM96.0067 53.4429C97.6549 54.1324 98.4915 57.1571 97.5468 59.0089C96.6179 60.8291 94.2155 60.748 93.2601 58.8654C91.7901 55.9655 93.5821 52.427 96.0067 53.4429ZM121.64 53.5067C123.71 54.5112 124.077 58.7564 122.198 59.9509C120.338 61.1333 118.437 59.6625 118.252 56.8974C118.079 54.311 119.783 52.6056 121.64 53.5067ZM207.916 53.5311C209.267 54.2479 210.015 56.7934 209.41 58.6193C208.675 60.8377 205.951 60.9288 204.9 58.7693C203.447 55.7861 205.487 52.244 207.916 53.5311ZM84.2543 55.8184C84.8333 57.4276 84.8691 57.3222 83.7477 57.3222C83.2231 57.3222 82.7937 57.2877 82.7937 57.2447C82.7937 57.0574 83.6689 54.5722 83.7348 54.5736C83.7749 54.5743 84.0089 55.1346 84.2543 55.8184ZM159.491 56.3357L159.838 57.3222H158.828C158.272 57.3222 157.817 57.3057 157.817 57.2849C157.817 57.2267 158.491 55.271 158.648 54.8713L158.79 54.5126L158.967 54.9309C159.064 55.1612 159.299 55.7933 159.491 56.3357ZM195.962 55.8872C196.16 56.4461 196.359 56.9979 196.404 57.1134C196.48 57.3028 196.392 57.3222 195.461 57.3222C194.897 57.3222 194.435 57.3092 194.435 57.2927C194.435 57.2691 194.94 55.8191 195.341 54.692C195.428 54.448 195.507 54.6001 195.962 55.8872ZM265.224 56.515L265.518 57.3222H264.506C263.95 57.3222 263.495 57.3057 263.495 57.2849C263.495 57.2253 264.171 55.2645 264.327 54.8713L264.469 54.5126L264.7 55.1102C264.828 55.4388 265.063 56.0716 265.224 56.515ZM120.111 62.7339C119.699 63.0869 119.615 63.371 119.776 63.8596C120.154 65.0097 121.915 64.7141 121.915 63.5002C121.915 62.6392 120.783 62.1578 120.111 62.7339ZM158.047 62.8136C157.181 63.6817 158.119 64.9502 159.295 64.5018C159.677 64.3561 160.008 63.7305 159.909 63.338C159.691 62.4642 158.679 62.1793 158.047 62.8136ZM233.686 62.7734C233.185 63.196 233.178 63.7764 233.667 64.2671C234.226 64.8268 235.057 64.6775 235.399 63.9565C235.903 62.8932 234.605 61.9978 233.686 62.7734Z" fill="#AB2B2C"/>
</svg>
