<svg width="14" height="13" viewBox="0 0 14 13" fill="none" xmlns="http://www.w3.org/2000/svg">
<g opacity="0.65">
<path d="M12.6912 8.45018C11.903 8.45018 11.1291 8.32691 10.3957 8.08455C10.0363 7.96198 9.59457 8.07442 9.37525 8.29968L7.92772 9.39241C6.24899 8.49631 5.21493 7.46258 4.33106 5.79646L5.39164 4.38665C5.66719 4.11147 5.76602 3.7095 5.64761 3.33234C5.40422 2.59511 5.28057 1.82158 5.28057 1.03306C5.28061 0.463424 4.81718 0 4.24759 0H1.88336C1.31377 0 0.850342 0.463424 0.850342 1.03302C0.850342 7.56212 6.16206 12.8738 12.6912 12.8738C13.2608 12.8738 13.7242 12.4104 13.7242 11.8408V9.48317C13.7241 8.9136 13.2607 8.45018 12.6912 8.45018Z" fill="white"/>
</g>
</svg>
