<svg width="14" height="17" viewBox="0 0 14 17" fill="none" xmlns="http://www.w3.org/2000/svg">
<path d="M7.23468 0C-0.884698 0.000708145 -1.57322 8.57351 2.22478 10.2292C2.61535 10.4027 2.56365 10.1909 2.89966 8.92334C2.91512 8.87213 2.91649 8.81779 2.90362 8.7659C2.89075 8.714 2.86411 8.66642 2.82642 8.62804C0.869272 6.39526 2.44447 1.80506 6.9554 1.80506C13.4838 1.80506 12.264 10.7149 8.09121 10.7149C7.01571 10.7149 6.21447 9.88217 6.46791 8.85181C6.77519 7.6246 7.37684 6.30532 7.37684 5.42085C7.37684 3.19161 4.00962 3.52231 4.00962 6.47599C4.00962 7.38879 4.33701 8.00487 4.33701 8.00487C4.33701 8.00487 3.25361 12.3217 3.05258 13.1283C2.8214 14.0546 2.93484 17.4685 3.33905 16.9459C3.44602 16.8078 4.75558 14.9652 5.12245 13.6332C5.25599 13.1481 5.8038 11.1795 5.8038 11.1795C6.16493 11.8225 7.20597 12.3607 8.31521 12.3607C11.6149 12.3607 14 9.49977 14 5.94984C13.9885 2.54649 11.0356 0 7.23468 0Z" fill="#993333"/>
</svg>
