<svg width="21" height="21" viewBox="0 0 21 21" fill="none" xmlns="http://www.w3.org/2000/svg">
<path fill-rule="evenodd" clip-rule="evenodd" d="M4.46825 13.369H16.3836V20.0714C16.3836 20.2689 16.3051 20.4583 16.1655 20.598C16.0258 20.7377 15.8364 20.8161 15.6389 20.8161H5.21296C5.01545 20.8161 4.82603 20.7377 4.68637 20.598C4.54671 20.4583 4.46825 20.2689 4.46825 20.0714V13.369ZM18.6177 5.17724H2.23413C1.6416 5.17724 1.07334 5.41262 0.654361 5.8316C0.235381 6.25058 0 6.81884 0 7.41137V13.369C0 13.9616 0.235381 14.5298 0.654361 14.9488C1.07334 15.3678 1.6416 15.6032 2.23413 15.6032H2.97884V13.369C2.97884 12.974 3.13576 12.5952 3.41508 12.3159C3.6944 12.0365 4.07324 11.8796 4.46825 11.8796H16.3836C16.7786 11.8796 17.1575 12.0365 17.4368 12.3159C17.7161 12.5952 17.873 12.974 17.873 13.369V19.3267V15.6032H18.6177C19.2103 15.6032 19.7785 15.3678 20.1975 14.9488C20.6165 14.5298 20.8519 13.9616 20.8519 13.369V7.41137C20.8519 6.81884 20.6165 6.25058 20.1975 5.8316C19.7785 5.41262 19.2103 5.17724 18.6177 5.17724ZM6.70238 18.582H14.1495C14.347 18.582 14.5364 18.5035 14.6761 18.3639C14.8157 18.2242 14.8942 18.0348 14.8942 17.8373C14.8942 17.6398 14.8157 17.4504 14.6761 17.3107C14.5364 17.171 14.347 17.0926 14.1495 17.0926H6.70238C6.50487 17.0926 6.31545 17.171 6.17579 17.3107C6.03613 17.4504 5.95767 17.6398 5.95767 17.8373C5.95767 18.0348 6.03613 18.2242 6.17579 18.3639C6.31545 18.5035 6.50487 18.582 6.70238 18.582ZM6.70238 15.6032H12.6601C12.8576 15.6032 13.047 15.5247 13.1866 15.385C13.3263 15.2454 13.4048 15.056 13.4048 14.8585C13.4048 14.6609 13.3263 14.4715 13.1866 14.3319C13.047 14.1922 12.8576 14.1137 12.6601 14.1137H6.70238C6.50487 14.1137 6.31545 14.1922 6.17579 14.3319C6.03613 14.4715 5.95767 14.6609 5.95767 14.8585C5.95767 15.056 6.03613 15.2454 6.17579 15.385C6.31545 15.5247 6.50487 15.6032 6.70238 15.6032ZM17.1283 8.15607C17.3258 8.15607 17.5152 8.23453 17.6549 8.37419C17.7946 8.51385 17.873 8.70327 17.873 8.90078C17.873 9.09829 17.7946 9.28771 17.6549 9.42737C17.5152 9.56703 17.3258 9.64549 17.1283 9.64549C16.9308 9.64549 16.7414 9.56703 16.6017 9.42737C16.4621 9.28771 16.3836 9.09829 16.3836 8.90078C16.3836 8.70327 16.4621 8.51385 16.6017 8.37419C16.7414 8.23453 16.9308 8.15607 17.1283 8.15607ZM2.97884 3.68782H17.873V2.94311C17.873 2.35058 17.6376 1.78233 17.2187 1.36335C16.7997 0.944365 16.2314 0.708984 15.6389 0.708984H5.21296C4.62044 0.708984 4.05218 0.944365 3.6332 1.36335C3.21422 1.78233 2.97884 2.35058 2.97884 2.94311V3.68782Z" fill="#993333"/>
</svg>
