<svg width="16" height="16" viewBox="0 0 16 16" fill="none" xmlns="http://www.w3.org/2000/svg">
<path d="M15.3936 4.27883C14.4237 4.27883 13.5289 3.99655 12.8103 3.52034C11.9861 2.97443 11.394 2.17365 11.1849 1.25069C11.1324 1.01862 11.1049 0.782735 11.1026 0.546143H8.33205V7.19733L8.32873 10.8405C8.32873 11.8145 7.60681 12.6403 6.60608 12.9308C6.30632 13.0179 5.99061 13.0547 5.67538 13.0393C5.25849 13.0192 4.86782 12.9086 4.52827 12.7302C3.80569 12.3505 3.31577 11.6617 3.3025 10.8737C3.28159 9.64224 4.41476 8.63821 5.81545 8.63821C6.09194 8.63821 6.35747 8.67787 6.60608 8.7499V6.27845C6.34386 6.24433 6.077 6.22654 5.80715 6.22654C4.27402 6.22654 2.84014 6.78644 1.81517 7.79514C1.04048 8.55743 0.57579 9.52997 0.504096 10.5498C0.410163 11.8894 0.968118 13.1629 2.05017 14.1025C2.20916 14.2404 2.37611 14.3685 2.5507 14.4866C3.47841 15.1138 4.61258 15.4539 5.80715 15.4539C6.077 15.4539 6.34386 15.4364 6.60608 15.4022C7.72199 15.257 8.7516 14.8082 9.56413 14.1025C10.5625 13.2355 11.1142 12.0845 11.1202 10.8594L11.1059 5.41905C11.5833 5.74259 12.1063 6.01057 12.6619 6.21633C13.5312 6.53857 14.453 6.70187 15.4016 6.70158V4.27825C15.4022 4.27883 15.3943 4.27883 15.3936 4.27883Z" fill="#993333"/>
</svg>
