<svg width="20" height="12" viewBox="0 0 20 12" fill="none" xmlns="http://www.w3.org/2000/svg">
<path d="M19.1059 2.2264C18.8889 1.55429 18.2529 1.02446 17.4463 0.843483C15.9727 0.507568 10.0783 0.507568 10.0783 0.507568C10.0783 0.507568 4.1841 0.507568 2.71053 0.830747C1.91943 1.01154 1.26787 1.55438 1.05087 2.2264C0.663086 3.454 0.663086 5.99989 0.663086 5.99989C0.663086 5.99989 0.663086 8.5586 1.05087 9.77337C1.2681 10.4454 1.90392 10.9752 2.71064 11.1562C4.19962 11.4922 10.0785 11.4922 10.0785 11.4922C10.0785 11.4922 15.9727 11.4922 17.4463 11.169C18.253 10.9881 18.8889 10.4583 19.1061 9.7863C19.4938 8.5586 19.4938 6.01281 19.4938 6.01281C19.4938 6.01281 19.5093 3.454 19.1059 2.2264ZM8.20163 8.35186V3.64791L13.1031 5.99989L8.20163 8.35186Z" fill="#993333"/>
</svg>
